M48
; DRILL file {KiCad 9.0.7} date 2026-04-22T20:24:32-0300
; FORMAT={-:-/ absolute / metric / decimal}
; #@! TF.CreationDate,2026-04-22T20:24:32-03:00
; #@! TF.GenerationSoftware,Kicad,Pcbnew,9.0.7
; #@! TF.FileFunction,Plated,1,2,PTH
FMAT,2
METRIC
; #@! TA.AperFunction,Plated,PTH,ViaDrill
T1C0.300
; #@! TA.AperFunction,Plated,PTH,ComponentDrill
T2C0.600
; #@! TA.AperFunction,Plated,PTH,ComponentDrill
T3C0.800
; #@! TA.AperFunction,Plated,PTH,ComponentDrill
T4C1.000
; #@! TA.AperFunction,Plated,PTH,ComponentDrill
T5C1.300
%
G90
G05
T1
X79.79Y-62.83
X81.65Y-130.28
X83.07Y-126.37
X84.94Y-110.35
X85.56Y-126.39
X87.6Y-116.63
X88.87Y-117.34
X89.79Y-127.83
X91.56Y-133.2
X94.79Y-118.6
X94.84Y-123.88
X99.06Y-130.28
X99.97Y-125.85
X99.99Y-115.18
X101.3Y-78.93
X101.507Y-115.27
X103.14Y-125.85
X104.42Y-109.3
X105.317Y-115.64
X106.47Y-116.65
X107.22Y-128.22
X108.64Y-132.91
X109.85Y-74.55
X112.79Y-60.83
X114.06Y-118.21
X114.24Y-123.1
X114.79Y-58.83
X115.6Y-77.12
X117.2Y-74.31
X119.52Y-72.93
X122.53Y-108.6
X122.53Y-110.28
X122.54Y-106.92
X123.09Y-68.28
X123.79Y-66.83
X126.21Y-72.87
X126.21Y-74.2
X127.73Y-83.61
X129.79Y-66.29
X129.8Y-74.24
X129.83Y-72.87
X131.45Y-67.54
X132.92Y-61.28
X133.0Y-89.0
X135.01Y-59.28
X136.08Y-65.26
X136.89Y-75.66
X137.69Y-105.83
X137.8Y-108.44
X137.8Y-110.27
X137.97Y-74.9
X138.02Y-83.49
X138.03Y-81.93
X138.13Y-77.99
X138.15Y-79.29
X138.15Y-80.64
X138.245Y-84.795
X139.0Y-91.0
X140.17Y-59.28
X140.75Y-61.21
X141.54Y-76.61
X141.99Y-77.81
X143.0Y-90.0
X143.09Y-68.16
X143.56Y-81.426
X143.65Y-80.48
X143.93Y-78.17
X144.41Y-75.3
X144.485Y-76.535
X144.86Y-81.53
X145.0Y-109.02
X145.07Y-79.53
X145.354Y-63.166
X145.39Y-61.68
X145.63Y-82.56
X146.15Y-60.875
X149.15Y-93.79
X149.53Y-80.3
X149.86Y-57.77
X150.48Y-85.6
X150.71Y-73.702
X151.71Y-72.88
X152.33Y-90.3
X152.44Y-71.94
X152.48Y-86.48
X152.63Y-130.2
X152.79Y-97.83
X153.9Y-62.48
X153.91Y-68.13
X154.29Y-85.66
X154.913Y-97.733
X155.76Y-98.27
X156.72Y-68.17
X156.78Y-62.48
X157.07Y-110.7
X157.42Y-90.33
X157.81Y-95.83
X158.14Y-66.77
X158.19Y-63.98
X158.88Y-71.72
X159.79Y-70.71
X160.33Y-123.8
X160.5Y-69.64
X161.12Y-70.75
X162.52Y-70.82
X162.79Y-81.83
X163.37Y-71.87
X163.62Y-57.69
X163.69Y-66.78
X164.035Y-79.655
X165.79Y-87.83
X167.05Y-121.14
X167.76Y-74.86
X167.92Y-92.15
T4
X169.44Y-86.75
X169.44Y-89.29
X169.6Y-58.81
X169.6Y-61.35
X169.6Y-63.89
X169.6Y-66.43
X169.6Y-68.97
X169.6Y-71.51
X169.6Y-74.05
X169.6Y-76.59
X169.6Y-79.13
X169.6Y-81.67
T5
X90.97Y-143.72
X95.97Y-143.72
X100.97Y-143.72
X105.97Y-143.72
X115.79Y-143.83
X120.79Y-143.83
X125.79Y-143.83
X130.79Y-143.83
T2
G00X164.965Y-101.67
M15
G01X163.865Y-101.67
M16
G05
G00X164.965Y-110.31
M15
G01X163.865Y-110.31
M16
G05
G00X168.985Y-101.67
M15
G01X168.185Y-101.67
M16
G05
G00X168.985Y-110.31
M15
G01X168.185Y-110.31
M16
G05
T3
G00X79.79Y-67.73
M15
G01X79.79Y-69.93
M16
G05
G00X81.99Y-73.43
M15
G01X84.19Y-73.43
M16
G05
G00X85.89Y-67.73
M15
G01X85.89Y-69.93
M16
G05
G00X157.69Y-131.93
M15
G01X157.69Y-129.73
M16
G05
G00X161.59Y-126.23
M15
G01X159.39Y-126.23
M16
G05
G00X163.79Y-131.93
M15
G01X163.79Y-129.73
M16
G05
M30
