%TF.GenerationSoftware,KiCad,Pcbnew,9.0.7*%
%TF.CreationDate,2026-04-22T20:23:58-03:00*%
%TF.ProjectId,Estacion_Nivel_V3,45737461-6369-46f6-9e5f-4e6976656c5f,rev?*%
%TF.SameCoordinates,Original*%
%TF.FileFunction,Copper,L2,Bot*%
%TF.FilePolarity,Positive*%
%FSLAX46Y46*%
G04 Gerber Fmt 4.6, Leading zero omitted, Abs format (unit mm)*
G04 Created by KiCad (PCBNEW 9.0.7) date 2026-04-22 20:23:58*
%MOMM*%
%LPD*%
G01*
G04 APERTURE LIST*
G04 Aperture macros list*
%AMRoundRect*
0 Rectangle with rounded corners*
0 $1 Rounding radius*
0 $2 $3 $4 $5 $6 $7 $8 $9 X,Y pos of 4 corners*
0 Add a 4 corners polygon primitive as box body*
4,1,4,$2,$3,$4,$5,$6,$7,$8,$9,$2,$3,0*
0 Add four circle primitives for the rounded corners*
1,1,$1+$1,$2,$3*
1,1,$1+$1,$4,$5*
1,1,$1+$1,$6,$7*
1,1,$1+$1,$8,$9*
0 Add four rect primitives between the rounded corners*
20,1,$1+$1,$2,$3,$4,$5,0*
20,1,$1+$1,$4,$5,$6,$7,0*
20,1,$1+$1,$6,$7,$8,$9,0*
20,1,$1+$1,$8,$9,$2,$3,0*%
G04 Aperture macros list end*
%TA.AperFunction,ComponentPad*%
%ADD10O,2.000000X4.000000*%
%TD*%
%TA.AperFunction,ComponentPad*%
%ADD11O,4.000000X2.000000*%
%TD*%
%TA.AperFunction,ComponentPad*%
%ADD12RoundRect,0.250001X-1.149999X-1.149999X1.149999X-1.149999X1.149999X1.149999X-1.149999X1.149999X0*%
%TD*%
%TA.AperFunction,ComponentPad*%
%ADD13C,2.800000*%
%TD*%
%TA.AperFunction,ComponentPad*%
%ADD14R,1.700000X1.700000*%
%TD*%
%TA.AperFunction,ComponentPad*%
%ADD15C,1.700000*%
%TD*%
%TA.AperFunction,HeatsinkPad*%
%ADD16O,2.000000X0.900000*%
%TD*%
%TA.AperFunction,HeatsinkPad*%
%ADD17O,1.700000X0.900000*%
%TD*%
%TA.AperFunction,ViaPad*%
%ADD18C,0.800000*%
%TD*%
%TA.AperFunction,ViaPad*%
%ADD19C,0.600000*%
%TD*%
%TA.AperFunction,Conductor*%
%ADD20C,0.635000*%
%TD*%
%TA.AperFunction,Conductor*%
%ADD21C,0.300000*%
%TD*%
%TA.AperFunction,Conductor*%
%ADD22C,0.438400*%
%TD*%
%TA.AperFunction,Conductor*%
%ADD23C,0.200000*%
%TD*%
G04 APERTURE END LIST*
D10*
X85890000Y-68830000D03*
D11*
X83090000Y-73430000D03*
D10*
X79790000Y-68830000D03*
D12*
X90970000Y-143720000D03*
D13*
X95970000Y-143720000D03*
X100970000Y-143720000D03*
X105970000Y-143720000D03*
D14*
X169440000Y-86750000D03*
D15*
X169440000Y-89290000D03*
D10*
X157690000Y-130830000D03*
D11*
X160490000Y-126230000D03*
D10*
X163790000Y-130830000D03*
D16*
X164415000Y-110310000D03*
D17*
X168585000Y-110310000D03*
D16*
X164415000Y-101670000D03*
D17*
X168585000Y-101670000D03*
D14*
X169600000Y-58810000D03*
D15*
X169600000Y-61350000D03*
X169600000Y-63890000D03*
X169600000Y-66430000D03*
X169600000Y-68970000D03*
X169600000Y-71510000D03*
X169600000Y-74050000D03*
X169600000Y-76590000D03*
X169600000Y-79130000D03*
X169600000Y-81670000D03*
D12*
X115790000Y-143830000D03*
D13*
X120790000Y-143830000D03*
X125790000Y-143830000D03*
X130790000Y-143830000D03*
D18*
X129790000Y-66290000D03*
X123790000Y-66830000D03*
X129800000Y-74240000D03*
X138130000Y-77990000D03*
X138030000Y-81930000D03*
X150480000Y-85600000D03*
X154290000Y-85660000D03*
X114790000Y-58830000D03*
X114240000Y-123100000D03*
X145630000Y-82560000D03*
X144410000Y-75300000D03*
X160330000Y-123800000D03*
X163370000Y-71870000D03*
X137800000Y-110270000D03*
X99990000Y-115180000D03*
X149530000Y-80300000D03*
X140750000Y-61210000D03*
X108640000Y-132910000D03*
X163620000Y-57690000D03*
X149860000Y-57770000D03*
X158140000Y-66770000D03*
X122530000Y-108600000D03*
X85560000Y-126390000D03*
X117200000Y-74310000D03*
X143560000Y-81425727D03*
X152790000Y-97830000D03*
X137690000Y-105830000D03*
X156780000Y-62480000D03*
X141540000Y-76610000D03*
X126210000Y-74200000D03*
X138020000Y-83490000D03*
X153900000Y-62480000D03*
X167920000Y-92150000D03*
X152330000Y-90300000D03*
X94790000Y-118600000D03*
X132920000Y-61280000D03*
X136890000Y-75660000D03*
X152440000Y-71940000D03*
X165790000Y-87830000D03*
X88870000Y-117340000D03*
X114060000Y-118210000D03*
X152630000Y-130200000D03*
X106470000Y-116650000D03*
X94840000Y-123880000D03*
X145000000Y-109020000D03*
X158880000Y-71720000D03*
X157420000Y-90330000D03*
X158190000Y-63980000D03*
X99970000Y-125850000D03*
X122530000Y-110280000D03*
D19*
X79790000Y-62830000D03*
D18*
X162790000Y-81830000D03*
X122540000Y-106920000D03*
X83070000Y-126370000D03*
X103140000Y-125850000D03*
X160500000Y-69640000D03*
X167050000Y-121140000D03*
X153910000Y-68130000D03*
X137800000Y-108440000D03*
X156720000Y-68170000D03*
X91560000Y-133200000D03*
X157810000Y-95830000D03*
X157070000Y-110700000D03*
X107220000Y-128220000D03*
X149150000Y-93790000D03*
X99060000Y-130280000D03*
X127730000Y-83610000D03*
X140170000Y-59280000D03*
X101300000Y-78930000D03*
D19*
X89790000Y-127830000D03*
X139000000Y-91000000D03*
D18*
X135010000Y-59280000D03*
X81650000Y-130280000D03*
D19*
X133000000Y-89000000D03*
X143000000Y-90000000D03*
D18*
X145353771Y-63166229D03*
X152480000Y-86480000D03*
X155760000Y-98270000D03*
X151710000Y-72880000D03*
X154912787Y-97732743D03*
X150710000Y-73702400D03*
X138150000Y-80640000D03*
X143650000Y-80480000D03*
X138245000Y-84795000D03*
X144860000Y-81530000D03*
X131450000Y-67540000D03*
X123090000Y-68280000D03*
X143930000Y-78170000D03*
X137970000Y-74900000D03*
X109850000Y-74550000D03*
X119520000Y-72930000D03*
X143090000Y-68160000D03*
X115600000Y-77120000D03*
X145070000Y-79530000D03*
X129830000Y-72870000D03*
X138150000Y-79290000D03*
X126210000Y-72870000D03*
X104420000Y-109300000D03*
X159790000Y-70710000D03*
X141990000Y-77810000D03*
X144485000Y-76535000D03*
X136080000Y-65260000D03*
X84940000Y-110350000D03*
X105317500Y-115640000D03*
X162520000Y-70820000D03*
X101507500Y-115270000D03*
X161120000Y-70750000D03*
X145390000Y-61680000D03*
X87600000Y-116630000D03*
X146150000Y-60875000D03*
X112790000Y-60830000D03*
X163690000Y-66780000D03*
X167760000Y-74860000D03*
X164035000Y-79655000D03*
D20*
X101120000Y-128220000D02*
X99060000Y-130280000D01*
X140000000Y-90000000D02*
X139000000Y-89000000D01*
X83690000Y-127830000D02*
X81650000Y-129870000D01*
X134960000Y-59280000D02*
X134940000Y-59300000D01*
X127730000Y-83610000D02*
X105980000Y-83610000D01*
X149150000Y-93790000D02*
X149150000Y-83300000D01*
X146050000Y-65160000D02*
X140170000Y-59280000D01*
X105980000Y-83610000D02*
X101300000Y-78930000D01*
X135010000Y-59280000D02*
X134960000Y-59280000D01*
X81650000Y-129870000D02*
X81650000Y-130280000D01*
X140000000Y-90000000D02*
X143000000Y-90000000D01*
X149150000Y-83300000D02*
X146050000Y-80200000D01*
X140170000Y-59280000D02*
X135010000Y-59280000D01*
X146050000Y-80200000D02*
X146050000Y-65160000D01*
X89790000Y-127830000D02*
X83690000Y-127830000D01*
X107220000Y-128220000D02*
X101120000Y-128220000D01*
X139000000Y-91000000D02*
X140000000Y-90000000D01*
X139000000Y-89000000D02*
X133000000Y-89000000D01*
D21*
X145457542Y-63270000D02*
X146540000Y-63270000D01*
X152480000Y-79630000D02*
X152480000Y-86480000D01*
X147340000Y-64070000D02*
X147340000Y-74490000D01*
X147340000Y-74490000D02*
X152480000Y-79630000D01*
X145353771Y-63166229D02*
X145457542Y-63270000D01*
X146540000Y-63270000D02*
X147340000Y-64070000D01*
D22*
X156219102Y-97810898D02*
X155760000Y-98270000D01*
X156219102Y-96909102D02*
X156219102Y-97810898D01*
X151858656Y-73028656D02*
X151858656Y-73733562D01*
X151858656Y-73733562D02*
X155961800Y-77836706D01*
X151710000Y-72880000D02*
X151858656Y-73028656D01*
X155961800Y-77836706D02*
X155961800Y-96651800D01*
X155961800Y-96651800D02*
X156219102Y-96909102D01*
X154912787Y-97732743D02*
X154912787Y-97687213D01*
X155319200Y-97280800D02*
X155319200Y-78102880D01*
X155319200Y-78102880D02*
X151026320Y-73810000D01*
X151026320Y-73808720D02*
X150920000Y-73702400D01*
X150920000Y-73702400D02*
X150710000Y-73702400D01*
X151026320Y-73810000D02*
X151026320Y-73808720D01*
X154912787Y-97687213D02*
X155319200Y-97280800D01*
D23*
X138160000Y-80480000D02*
X143650000Y-80480000D01*
X138150000Y-80640000D02*
X138150000Y-80490000D01*
X138150000Y-80490000D02*
X138160000Y-80480000D01*
X138260000Y-84780000D02*
X138245000Y-84795000D01*
X144860000Y-81590000D02*
X141670000Y-84780000D01*
X141670000Y-84780000D02*
X138260000Y-84780000D01*
X144860000Y-81530000D02*
X144860000Y-81590000D01*
X138245000Y-84795000D02*
X138190000Y-84850000D01*
X143480000Y-78620000D02*
X143930000Y-78170000D01*
X125870000Y-67540000D02*
X125180000Y-68230000D01*
X141690000Y-78620000D02*
X143480000Y-78620000D01*
X123140000Y-68230000D02*
X123090000Y-68280000D01*
X137970000Y-74900000D02*
X141690000Y-78620000D01*
X125180000Y-68230000D02*
X123140000Y-68230000D01*
X131450000Y-67540000D02*
X125870000Y-67540000D01*
X109850000Y-74480000D02*
X111400000Y-72930000D01*
X109850000Y-74550000D02*
X109850000Y-74480000D01*
X111400000Y-72930000D02*
X119520000Y-72930000D01*
X142820000Y-68430000D02*
X143090000Y-68160000D01*
X118550000Y-76970000D02*
X127090000Y-68430000D01*
X127090000Y-68430000D02*
X142820000Y-68430000D01*
X115600000Y-77120000D02*
X115750000Y-76970000D01*
X115750000Y-76970000D02*
X118550000Y-76970000D01*
X138390000Y-79530000D02*
X138150000Y-79290000D01*
X145070000Y-79530000D02*
X138390000Y-79530000D01*
X126210000Y-72870000D02*
X129830000Y-72870000D01*
X118120000Y-113120000D02*
X114300000Y-109300000D01*
X121030000Y-113120000D02*
X118120000Y-113120000D01*
X114300000Y-109300000D02*
X104420000Y-109300000D01*
X159790000Y-70710000D02*
X159790000Y-97103141D01*
X159790000Y-97103141D02*
X143773141Y-113120000D01*
X143773141Y-113120000D02*
X121030000Y-113120000D01*
X144380000Y-76640000D02*
X144380000Y-76990000D01*
X144380000Y-76990000D02*
X144130000Y-77240000D01*
X142560000Y-77240000D02*
X141990000Y-77810000D01*
X144485000Y-76535000D02*
X144380000Y-76640000D01*
X144130000Y-77240000D02*
X142560000Y-77240000D01*
X84940000Y-110350000D02*
X84970000Y-110320000D01*
X104860000Y-65260000D02*
X136080000Y-65260000D01*
X84970000Y-110320000D02*
X84970000Y-85150000D01*
X84970000Y-85150000D02*
X104860000Y-65260000D01*
X105317500Y-115640000D02*
X150110000Y-115640000D01*
X161510000Y-104240000D02*
X161510000Y-71830000D01*
X150110000Y-115640000D02*
X161510000Y-104240000D01*
X161510000Y-71830000D02*
X162520000Y-70820000D01*
X160680000Y-103450000D02*
X149870000Y-114260000D01*
X149870000Y-114260000D02*
X149870000Y-114320000D01*
X161120000Y-70750000D02*
X160680000Y-71190000D01*
X149870000Y-114320000D02*
X102457500Y-114320000D01*
X160680000Y-71190000D02*
X160680000Y-103450000D01*
X102457500Y-114320000D02*
X101507500Y-115270000D01*
X83760000Y-84860000D02*
X106790000Y-61830000D01*
X145390000Y-61350000D02*
X142340000Y-58300000D01*
X83760000Y-84860000D02*
X83760000Y-112790000D01*
X131320000Y-58300000D02*
X142340000Y-58300000D01*
X127790000Y-61830000D02*
X131320000Y-58300000D01*
X83760000Y-112790000D02*
X87600000Y-116630000D01*
X106790000Y-61830000D02*
X127790000Y-61830000D01*
X145390000Y-61680000D02*
X145390000Y-61350000D01*
X146040000Y-60600000D02*
X146040000Y-60765000D01*
X143105000Y-57830000D02*
X129790000Y-57830000D01*
X146040000Y-60765000D02*
X146150000Y-60875000D01*
X146150000Y-60875000D02*
X143105000Y-57830000D01*
X129790000Y-57830000D02*
X126790000Y-60830000D01*
X126790000Y-60830000D02*
X112790000Y-60830000D01*
X167800000Y-73080000D02*
X163690000Y-68970000D01*
X167760000Y-74800000D02*
X167800000Y-74760000D01*
X167800000Y-74760000D02*
X167800000Y-73080000D01*
X163690000Y-68970000D02*
X163690000Y-66780000D01*
X167760000Y-74860000D02*
X167760000Y-74800000D01*
X164035000Y-79655000D02*
X169440000Y-85060000D01*
X169440000Y-85060000D02*
X169440000Y-86750000D01*
%TA.AperFunction,Conductor*%
G36*
X132297122Y-49350185D02*
G01*
X132342877Y-49402989D01*
X132354078Y-49455620D01*
X132289999Y-56549500D01*
X132290000Y-56549500D01*
X132290000Y-56549501D01*
X167210000Y-56560000D01*
X171163309Y-56490057D01*
X171230684Y-56508553D01*
X171277366Y-56560539D01*
X171289500Y-56614038D01*
X171289500Y-148205500D01*
X171269815Y-148272539D01*
X171217011Y-148318294D01*
X171165500Y-148329500D01*
X72414500Y-148329500D01*
X72347461Y-148309815D01*
X72301706Y-148257011D01*
X72290500Y-148205500D01*
X72290500Y-143708711D01*
X75939500Y-143708711D01*
X75939500Y-143951288D01*
X75970077Y-144183553D01*
X75971162Y-144191789D01*
X75979863Y-144224260D01*
X76033947Y-144426104D01*
X76090303Y-144562159D01*
X76126776Y-144650212D01*
X76248064Y-144860289D01*
X76248066Y-144860292D01*
X76248067Y-144860293D01*
X76395733Y-145052736D01*
X76395739Y-145052743D01*
X76567256Y-145224260D01*
X76567263Y-145224266D01*
X76616360Y-145261939D01*
X76759711Y-145371936D01*
X76969788Y-145493224D01*
X77193900Y-145586054D01*
X77428211Y-145648838D01*
X77608586Y-145672584D01*
X77668711Y-145680500D01*
X77668712Y-145680500D01*
X77911289Y-145680500D01*
X77959388Y-145674167D01*
X78151789Y-145648838D01*
X78386100Y-145586054D01*
X78610212Y-145493224D01*
X78820289Y-145371936D01*
X79012738Y-145224265D01*
X79184265Y-145052738D01*
X79331936Y-144860289D01*
X79453224Y-144650212D01*
X79546054Y-144426100D01*
X79608838Y-144191789D01*
X79640500Y-143951288D01*
X79640500Y-143708712D01*
X79608838Y-143468211D01*
X79546054Y-143233900D01*
X79453224Y-143009788D01*
X79331936Y-142799711D01*
X79226377Y-142662143D01*
X79184266Y-142607263D01*
X79184260Y-142607256D01*
X79096988Y-142519984D01*
X89069500Y-142519984D01*
X89069500Y-144920015D01*
X89080000Y-145022795D01*
X89080001Y-145022797D01*
X89089924Y-145052743D01*
X89135186Y-145189335D01*
X89135187Y-145189337D01*
X89227286Y-145338651D01*
X89227289Y-145338655D01*
X89351344Y-145462710D01*
X89351348Y-145462713D01*
X89500662Y-145554812D01*
X89500664Y-145554813D01*
X89500666Y-145554814D01*
X89667203Y-145609999D01*
X89769992Y-145620500D01*
X89769997Y-145620500D01*
X92170003Y-145620500D01*
X92170008Y-145620500D01*
X92272797Y-145609999D01*
X92439334Y-145554814D01*
X92588655Y-145462711D01*
X92712711Y-145338655D01*
X92804814Y-145189334D01*
X92859999Y-145022797D01*
X92870500Y-144920008D01*
X92870500Y-143595441D01*
X94069500Y-143595441D01*
X94069500Y-143844558D01*
X94069501Y-143844575D01*
X94102004Y-144091463D01*
X94102018Y-144091565D01*
X94137574Y-144224260D01*
X94166498Y-144332207D01*
X94261830Y-144562361D01*
X94261837Y-144562376D01*
X94386400Y-144778126D01*
X94538060Y-144975774D01*
X94538066Y-144975781D01*
X94714218Y-145151933D01*
X94714225Y-145151939D01*
X94911873Y-145303599D01*
X95127623Y-145428162D01*
X95127638Y-145428169D01*
X95226825Y-145469253D01*
X95357793Y-145523502D01*
X95598435Y-145587982D01*
X95845435Y-145620500D01*
X95845442Y-145620500D01*
X96094558Y-145620500D01*
X96094565Y-145620500D01*
X96341565Y-145587982D01*
X96582207Y-145523502D01*
X96812373Y-145428164D01*
X97028127Y-145303599D01*
X97225776Y-145151938D01*
X97401938Y-144975776D01*
X97553599Y-144778127D01*
X97678164Y-144562373D01*
X97773502Y-144332207D01*
X97837982Y-144091565D01*
X97870500Y-143844565D01*
X97870500Y-143595441D01*
X99069500Y-143595441D01*
X99069500Y-143844558D01*
X99069501Y-143844575D01*
X99102004Y-144091463D01*
X99102018Y-144091565D01*
X99137574Y-144224260D01*
X99166498Y-144332207D01*
X99261830Y-144562361D01*
X99261837Y-144562376D01*
X99386400Y-144778126D01*
X99538060Y-144975774D01*
X99538066Y-144975781D01*
X99714218Y-145151933D01*
X99714225Y-145151939D01*
X99911873Y-145303599D01*
X100127623Y-145428162D01*
X100127638Y-145428169D01*
X100226825Y-145469253D01*
X100357793Y-145523502D01*
X100598435Y-145587982D01*
X100845435Y-145620500D01*
X100845442Y-145620500D01*
X101094558Y-145620500D01*
X101094565Y-145620500D01*
X101341565Y-145587982D01*
X101582207Y-145523502D01*
X101812373Y-145428164D01*
X102028127Y-145303599D01*
X102225776Y-145151938D01*
X102244919Y-145132795D01*
X102284750Y-145092965D01*
X102401933Y-144975781D01*
X102401938Y-144975776D01*
X102553599Y-144778127D01*
X102678164Y-144562373D01*
X102773502Y-144332207D01*
X102837982Y-144091565D01*
X102870500Y-143844565D01*
X102870500Y-143595466D01*
X104070000Y-143595466D01*
X104070000Y-143844533D01*
X104102508Y-144091463D01*
X104166973Y-144332049D01*
X104262283Y-144562148D01*
X104262288Y-144562159D01*
X104386813Y-144777841D01*
X104386819Y-144777849D01*
X104461400Y-144875045D01*
X105368958Y-143967487D01*
X105393978Y-144027890D01*
X105465112Y-144134351D01*
X105555649Y-144224888D01*
X105662110Y-144296022D01*
X105722511Y-144321041D01*
X104814953Y-145228598D01*
X104912150Y-145303180D01*
X104912158Y-145303186D01*
X105127840Y-145427711D01*
X105127851Y-145427716D01*
X105357950Y-145523026D01*
X105598536Y-145587491D01*
X105845466Y-145620000D01*
X106094534Y-145620000D01*
X106341463Y-145587491D01*
X106582049Y-145523026D01*
X106812148Y-145427716D01*
X106812159Y-145427711D01*
X107027855Y-145303178D01*
X107125045Y-145228600D01*
X107125045Y-145228597D01*
X106217488Y-144321041D01*
X106277890Y-144296022D01*
X106384351Y-144224888D01*
X106474888Y-144134351D01*
X106546022Y-144027890D01*
X106571041Y-143967488D01*
X107478597Y-144875045D01*
X107478600Y-144875045D01*
X107553178Y-144777855D01*
X107677711Y-144562159D01*
X107677716Y-144562148D01*
X107773026Y-144332049D01*
X107837491Y-144091463D01*
X107870000Y-143844533D01*
X107870000Y-143595466D01*
X107837491Y-143348536D01*
X107773026Y-143107950D01*
X107677716Y-142877851D01*
X107677711Y-142877840D01*
X107568588Y-142688835D01*
X107553185Y-142662157D01*
X107553180Y-142662150D01*
X107528498Y-142629984D01*
X113889500Y-142629984D01*
X113889500Y-145030015D01*
X113900000Y-145132795D01*
X113900001Y-145132796D01*
X113955186Y-145299335D01*
X113955187Y-145299337D01*
X114047286Y-145448651D01*
X114047289Y-145448655D01*
X114171344Y-145572710D01*
X114171348Y-145572713D01*
X114320662Y-145664812D01*
X114320664Y-145664813D01*
X114320666Y-145664814D01*
X114487203Y-145719999D01*
X114589992Y-145730500D01*
X114589997Y-145730500D01*
X116990003Y-145730500D01*
X116990008Y-145730500D01*
X117092797Y-145719999D01*
X117259334Y-145664814D01*
X117408655Y-145572711D01*
X117532711Y-145448655D01*
X117624814Y-145299334D01*
X117679999Y-145132797D01*
X117690500Y-145030008D01*
X117690500Y-143705441D01*
X118889500Y-143705441D01*
X118889500Y-143954558D01*
X118889501Y-143954575D01*
X118922004Y-144201463D01*
X118922018Y-144201565D01*
X118928101Y-144224266D01*
X118986498Y-144442207D01*
X119081830Y-144672361D01*
X119081837Y-144672376D01*
X119206400Y-144888126D01*
X119358060Y-145085774D01*
X119358066Y-145085781D01*
X119534218Y-145261933D01*
X119534225Y-145261939D01*
X119731873Y-145413599D01*
X119947623Y-145538162D01*
X119947638Y-145538169D01*
X120046825Y-145579253D01*
X120177793Y-145633502D01*
X120418435Y-145697982D01*
X120665435Y-145730500D01*
X120665442Y-145730500D01*
X120914558Y-145730500D01*
X120914565Y-145730500D01*
X121161565Y-145697982D01*
X121402207Y-145633502D01*
X121632373Y-145538164D01*
X121848127Y-145413599D01*
X122045776Y-145261938D01*
X122221938Y-145085776D01*
X122373599Y-144888127D01*
X122498164Y-144672373D01*
X122593502Y-144442207D01*
X122657982Y-144201565D01*
X122690500Y-143954565D01*
X122690500Y-143705441D01*
X123889500Y-143705441D01*
X123889500Y-143954558D01*
X123889501Y-143954575D01*
X123922004Y-144201463D01*
X123922018Y-144201565D01*
X123928101Y-144224266D01*
X123986498Y-144442207D01*
X124081830Y-144672361D01*
X124081837Y-144672376D01*
X124206400Y-144888126D01*
X124358060Y-145085774D01*
X124358066Y-145085781D01*
X124534218Y-145261933D01*
X124534225Y-145261939D01*
X124731873Y-145413599D01*
X124947623Y-145538162D01*
X124947638Y-145538169D01*
X125046825Y-145579253D01*
X125177793Y-145633502D01*
X125418435Y-145697982D01*
X125665435Y-145730500D01*
X125665442Y-145730500D01*
X125914558Y-145730500D01*
X125914565Y-145730500D01*
X126161565Y-145697982D01*
X126402207Y-145633502D01*
X126632373Y-145538164D01*
X126848127Y-145413599D01*
X127045776Y-145261938D01*
X127045781Y-145261933D01*
X127104750Y-145202965D01*
X127221933Y-145085781D01*
X127221938Y-145085776D01*
X127373599Y-144888127D01*
X127498164Y-144672373D01*
X127593502Y-144442207D01*
X127657982Y-144201565D01*
X127690500Y-143954565D01*
X127690500Y-143705466D01*
X128890000Y-143705466D01*
X128890000Y-143954533D01*
X128922508Y-144201463D01*
X128986973Y-144442049D01*
X129082283Y-144672148D01*
X129082288Y-144672159D01*
X129206813Y-144887841D01*
X129206819Y-144887849D01*
X129281400Y-144985045D01*
X130188958Y-144077487D01*
X130213978Y-144137890D01*
X130285112Y-144244351D01*
X130375649Y-144334888D01*
X130482110Y-144406022D01*
X130542511Y-144431041D01*
X129634953Y-145338598D01*
X129732150Y-145413180D01*
X129732158Y-145413186D01*
X129947840Y-145537711D01*
X129947851Y-145537716D01*
X130177950Y-145633026D01*
X130418536Y-145697491D01*
X130665466Y-145730000D01*
X130914534Y-145730000D01*
X131161463Y-145697491D01*
X131402049Y-145633026D01*
X131632148Y-145537716D01*
X131632159Y-145537711D01*
X131847855Y-145413178D01*
X131945045Y-145338600D01*
X131945045Y-145338597D01*
X131037488Y-144431041D01*
X131097890Y-144406022D01*
X131204351Y-144334888D01*
X131294888Y-144244351D01*
X131366022Y-144137890D01*
X131391041Y-144077489D01*
X132298597Y-144985045D01*
X132298600Y-144985045D01*
X132373178Y-144887855D01*
X132497711Y-144672159D01*
X132497716Y-144672148D01*
X132593026Y-144442049D01*
X132657491Y-144201463D01*
X132690000Y-143954533D01*
X132690000Y-143705466D01*
X132657491Y-143458536D01*
X132593026Y-143217950D01*
X132497716Y-142987851D01*
X132497711Y-142987840D01*
X132373183Y-142772153D01*
X132324502Y-142708711D01*
X163939500Y-142708711D01*
X163939500Y-142951288D01*
X163971161Y-143191785D01*
X164033947Y-143426104D01*
X164126773Y-143650205D01*
X164126776Y-143650212D01*
X164248064Y-143860289D01*
X164248066Y-143860292D01*
X164248067Y-143860293D01*
X164395733Y-144052736D01*
X164395739Y-144052743D01*
X164567256Y-144224260D01*
X164567263Y-144224266D01*
X164660778Y-144296022D01*
X164759711Y-144371936D01*
X164969788Y-144493224D01*
X165193900Y-144586054D01*
X165428211Y-144648838D01*
X165605271Y-144672148D01*
X165668711Y-144680500D01*
X165668712Y-144680500D01*
X165911289Y-144680500D01*
X165972997Y-144672376D01*
X166151789Y-144648838D01*
X166386100Y-144586054D01*
X166610212Y-144493224D01*
X166820289Y-144371936D01*
X167012738Y-144224265D01*
X167184265Y-144052738D01*
X167331936Y-143860289D01*
X167453224Y-143650212D01*
X167546054Y-143426100D01*
X167608838Y-143191789D01*
X167640500Y-142951288D01*
X167640500Y-142708712D01*
X167608838Y-142468211D01*
X167546054Y-142233900D01*
X167453224Y-142009788D01*
X167331936Y-141799711D01*
X167184265Y-141607262D01*
X167184260Y-141607256D01*
X167012743Y-141435739D01*
X167012736Y-141435733D01*
X166820293Y-141288067D01*
X166820292Y-141288066D01*
X166820289Y-141288064D01*
X166610212Y-141166776D01*
X166610205Y-141166773D01*
X166386104Y-141073947D01*
X166151785Y-141011161D01*
X165911289Y-140979500D01*
X165911288Y-140979500D01*
X165668712Y-140979500D01*
X165668711Y-140979500D01*
X165428214Y-141011161D01*
X165193895Y-141073947D01*
X164969794Y-141166773D01*
X164969785Y-141166777D01*
X164759706Y-141288067D01*
X164567263Y-141435733D01*
X164567256Y-141435739D01*
X164395739Y-141607256D01*
X164395733Y-141607263D01*
X164248067Y-141799706D01*
X164126777Y-142009785D01*
X164126773Y-142009794D01*
X164033947Y-142233895D01*
X163971161Y-142468214D01*
X163939500Y-142708711D01*
X132324502Y-142708711D01*
X132298598Y-142674953D01*
X131391041Y-143582510D01*
X131366022Y-143522110D01*
X131294888Y-143415649D01*
X131204351Y-143325112D01*
X131097890Y-143253978D01*
X131037487Y-143228957D01*
X131945045Y-142321400D01*
X131847849Y-142246819D01*
X131847841Y-142246813D01*
X131632159Y-142122288D01*
X131632148Y-142122283D01*
X131402049Y-142026973D01*
X131161463Y-141962508D01*
X130914534Y-141930000D01*
X130665466Y-141930000D01*
X130418536Y-141962508D01*
X130177950Y-142026973D01*
X129947851Y-142122283D01*
X129947847Y-142122285D01*
X129732143Y-142246823D01*
X129634953Y-142321399D01*
X129634953Y-142321400D01*
X130542511Y-143228958D01*
X130482110Y-143253978D01*
X130375649Y-143325112D01*
X130285112Y-143415649D01*
X130213978Y-143522110D01*
X130188958Y-143582511D01*
X129281400Y-142674953D01*
X129281399Y-142674953D01*
X129206823Y-142772143D01*
X129082285Y-142987847D01*
X129082283Y-142987851D01*
X128986973Y-143217950D01*
X128922508Y-143458536D01*
X128890000Y-143705466D01*
X127690500Y-143705466D01*
X127690500Y-143705435D01*
X127657982Y-143458435D01*
X127593502Y-143217793D01*
X127507346Y-143009794D01*
X127498169Y-142987638D01*
X127498162Y-142987623D01*
X127373599Y-142771873D01*
X127221939Y-142574225D01*
X127221933Y-142574218D01*
X127045781Y-142398066D01*
X127045774Y-142398060D01*
X126848126Y-142246400D01*
X126632376Y-142121837D01*
X126632361Y-142121830D01*
X126402207Y-142026498D01*
X126349175Y-142012288D01*
X126161565Y-141962018D01*
X126161564Y-141962017D01*
X126161561Y-141962017D01*
X125914575Y-141929501D01*
X125914570Y-141929500D01*
X125914565Y-141929500D01*
X125665435Y-141929500D01*
X125665429Y-141929500D01*
X125665424Y-141929501D01*
X125418438Y-141962017D01*
X125177792Y-142026498D01*
X124947638Y-142121830D01*
X124947623Y-142121837D01*
X124731873Y-142246400D01*
X124534225Y-142398060D01*
X124534218Y-142398066D01*
X124358066Y-142574218D01*
X124358060Y-142574225D01*
X124206400Y-142771873D01*
X124081837Y-142987623D01*
X124081830Y-142987638D01*
X123986498Y-143217792D01*
X123922017Y-143458438D01*
X123889501Y-143705424D01*
X123889500Y-143705441D01*
X122690500Y-143705441D01*
X122690500Y-143705435D01*
X122657982Y-143458435D01*
X122593502Y-143217793D01*
X122507346Y-143009794D01*
X122498169Y-142987638D01*
X122498162Y-142987623D01*
X122373599Y-142771873D01*
X122221939Y-142574225D01*
X122221933Y-142574218D01*
X122045781Y-142398066D01*
X122045774Y-142398060D01*
X121848126Y-142246400D01*
X121632376Y-142121837D01*
X121632361Y-142121830D01*
X121402207Y-142026498D01*
X121349175Y-142012288D01*
X121161565Y-141962018D01*
X121161564Y-141962017D01*
X121161561Y-141962017D01*
X120914575Y-141929501D01*
X120914570Y-141929500D01*
X120914565Y-141929500D01*
X120665435Y-141929500D01*
X120665429Y-141929500D01*
X120665424Y-141929501D01*
X120418438Y-141962017D01*
X120177792Y-142026498D01*
X119947638Y-142121830D01*
X119947623Y-142121837D01*
X119731873Y-142246400D01*
X119534225Y-142398060D01*
X119534218Y-142398066D01*
X119358066Y-142574218D01*
X119358060Y-142574225D01*
X119206400Y-142771873D01*
X119081837Y-142987623D01*
X119081830Y-142987638D01*
X118986498Y-143217792D01*
X118922017Y-143458438D01*
X118889501Y-143705424D01*
X118889500Y-143705441D01*
X117690500Y-143705441D01*
X117690500Y-142629992D01*
X117679999Y-142527203D01*
X117624814Y-142360666D01*
X117600594Y-142321400D01*
X117532713Y-142211348D01*
X117532710Y-142211344D01*
X117408655Y-142087289D01*
X117408651Y-142087286D01*
X117259337Y-141995187D01*
X117259335Y-141995186D01*
X117176065Y-141967593D01*
X117092797Y-141940001D01*
X117092795Y-141940000D01*
X116990015Y-141929500D01*
X116990008Y-141929500D01*
X114589992Y-141929500D01*
X114589984Y-141929500D01*
X114487204Y-141940000D01*
X114487203Y-141940001D01*
X114320664Y-141995186D01*
X114320662Y-141995187D01*
X114171348Y-142087286D01*
X114171344Y-142087289D01*
X114047289Y-142211344D01*
X114047286Y-142211348D01*
X113955187Y-142360662D01*
X113955186Y-142360664D01*
X113900001Y-142527203D01*
X113900000Y-142527204D01*
X113889500Y-142629984D01*
X107528498Y-142629984D01*
X107478598Y-142564953D01*
X106571041Y-143472510D01*
X106546022Y-143412110D01*
X106474888Y-143305649D01*
X106384351Y-143215112D01*
X106277890Y-143143978D01*
X106217487Y-143118957D01*
X107125045Y-142211400D01*
X107027849Y-142136819D01*
X107027841Y-142136813D01*
X106812159Y-142012288D01*
X106812148Y-142012283D01*
X106582049Y-141916973D01*
X106341463Y-141852508D01*
X106094534Y-141820000D01*
X105845466Y-141820000D01*
X105598536Y-141852508D01*
X105357950Y-141916973D01*
X105127851Y-142012283D01*
X105127847Y-142012285D01*
X104912143Y-142136823D01*
X104814953Y-142211399D01*
X104814953Y-142211400D01*
X105722511Y-143118958D01*
X105662110Y-143143978D01*
X105555649Y-143215112D01*
X105465112Y-143305649D01*
X105393978Y-143412110D01*
X105368958Y-143472511D01*
X104461400Y-142564953D01*
X104461399Y-142564953D01*
X104386823Y-142662143D01*
X104262285Y-142877847D01*
X104262283Y-142877851D01*
X104166973Y-143107950D01*
X104102508Y-143348536D01*
X104070000Y-143595466D01*
X102870500Y-143595466D01*
X102870500Y-143595435D01*
X102837982Y-143348435D01*
X102773502Y-143107793D01*
X102719253Y-142976825D01*
X102678169Y-142877638D01*
X102678162Y-142877623D01*
X102553599Y-142661873D01*
X102401939Y-142464225D01*
X102401933Y-142464218D01*
X102225781Y-142288066D01*
X102225774Y-142288060D01*
X102028126Y-142136400D01*
X101812376Y-142011837D01*
X101812361Y-142011830D01*
X101582207Y-141916498D01*
X101465349Y-141885186D01*
X101341565Y-141852018D01*
X101341564Y-141852017D01*
X101341561Y-141852017D01*
X101094575Y-141819501D01*
X101094570Y-141819500D01*
X101094565Y-141819500D01*
X100845435Y-141819500D01*
X100845429Y-141819500D01*
X100845424Y-141819501D01*
X100598438Y-141852017D01*
X100357792Y-141916498D01*
X100127638Y-142011830D01*
X100127623Y-142011837D01*
X99911873Y-142136400D01*
X99714225Y-142288060D01*
X99714218Y-142288066D01*
X99538066Y-142464218D01*
X99538060Y-142464225D01*
X99386400Y-142661873D01*
X99261837Y-142877623D01*
X99261830Y-142877638D01*
X99166498Y-143107792D01*
X99102017Y-143348438D01*
X99069501Y-143595424D01*
X99069500Y-143595441D01*
X97870500Y-143595441D01*
X97870500Y-143595435D01*
X97837982Y-143348435D01*
X97773502Y-143107793D01*
X97719253Y-142976825D01*
X97678169Y-142877638D01*
X97678162Y-142877623D01*
X97553599Y-142661873D01*
X97401939Y-142464225D01*
X97401933Y-142464218D01*
X97225781Y-142288066D01*
X97225774Y-142288060D01*
X97028126Y-142136400D01*
X96812376Y-142011837D01*
X96812361Y-142011830D01*
X96582207Y-141916498D01*
X96465349Y-141885186D01*
X96341565Y-141852018D01*
X96341564Y-141852017D01*
X96341561Y-141852017D01*
X96094575Y-141819501D01*
X96094570Y-141819500D01*
X96094565Y-141819500D01*
X95845435Y-141819500D01*
X95845429Y-141819500D01*
X95845424Y-141819501D01*
X95598438Y-141852017D01*
X95357792Y-141916498D01*
X95127638Y-142011830D01*
X95127623Y-142011837D01*
X94911873Y-142136400D01*
X94714225Y-142288060D01*
X94714218Y-142288066D01*
X94538066Y-142464218D01*
X94538060Y-142464225D01*
X94386400Y-142661873D01*
X94261837Y-142877623D01*
X94261830Y-142877638D01*
X94166498Y-143107792D01*
X94102017Y-143348438D01*
X94069501Y-143595424D01*
X94069500Y-143595441D01*
X92870500Y-143595441D01*
X92870500Y-142519992D01*
X92859999Y-142417203D01*
X92804814Y-142250666D01*
X92802441Y-142246819D01*
X92712713Y-142101348D01*
X92712710Y-142101344D01*
X92588655Y-141977289D01*
X92588651Y-141977286D01*
X92439337Y-141885187D01*
X92439335Y-141885186D01*
X92356065Y-141857593D01*
X92272797Y-141830001D01*
X92272795Y-141830000D01*
X92170015Y-141819500D01*
X92170008Y-141819500D01*
X89769992Y-141819500D01*
X89769984Y-141819500D01*
X89667204Y-141830000D01*
X89667203Y-141830001D01*
X89500664Y-141885186D01*
X89500662Y-141885187D01*
X89351348Y-141977286D01*
X89351344Y-141977289D01*
X89227289Y-142101344D01*
X89227286Y-142101348D01*
X89135187Y-142250662D01*
X89135186Y-142250664D01*
X89080001Y-142417203D01*
X89080000Y-142417204D01*
X89069500Y-142519984D01*
X79096988Y-142519984D01*
X79012743Y-142435739D01*
X79012736Y-142435733D01*
X78820293Y-142288067D01*
X78820292Y-142288066D01*
X78820289Y-142288064D01*
X78610212Y-142166776D01*
X78610205Y-142166773D01*
X78386104Y-142073947D01*
X78155980Y-142012285D01*
X78151789Y-142011162D01*
X78151788Y-142011161D01*
X78151785Y-142011161D01*
X77911289Y-141979500D01*
X77911288Y-141979500D01*
X77668712Y-141979500D01*
X77668711Y-141979500D01*
X77428214Y-142011161D01*
X77193895Y-142073947D01*
X76969794Y-142166773D01*
X76969785Y-142166777D01*
X76824486Y-142250666D01*
X76759715Y-142288062D01*
X76759706Y-142288067D01*
X76567263Y-142435733D01*
X76567256Y-142435739D01*
X76395739Y-142607256D01*
X76395733Y-142607263D01*
X76248067Y-142799706D01*
X76126777Y-143009785D01*
X76126773Y-143009794D01*
X76033947Y-143233895D01*
X75971161Y-143468214D01*
X75939500Y-143708711D01*
X72290500Y-143708711D01*
X72290500Y-130191304D01*
X80749500Y-130191304D01*
X80749500Y-130368695D01*
X80784103Y-130542658D01*
X80784106Y-130542667D01*
X80851983Y-130706540D01*
X80851990Y-130706553D01*
X80950535Y-130854034D01*
X80950538Y-130854038D01*
X81075961Y-130979461D01*
X81075965Y-130979464D01*
X81223446Y-131078009D01*
X81223459Y-131078016D01*
X81346363Y-131128923D01*
X81387334Y-131145894D01*
X81387336Y-131145894D01*
X81387341Y-131145896D01*
X81561304Y-131180499D01*
X81561307Y-131180500D01*
X81561309Y-131180500D01*
X81738693Y-131180500D01*
X81738694Y-131180499D01*
X81796682Y-131168964D01*
X81912658Y-131145896D01*
X81912661Y-131145894D01*
X81912666Y-131145894D01*
X82076547Y-131078013D01*
X82224035Y-130979464D01*
X82349464Y-130854035D01*
X82448013Y-130706547D01*
X82515894Y-130542666D01*
X82550500Y-130368691D01*
X82550500Y-130191309D01*
X82550500Y-130191305D01*
X82550500Y-130191304D01*
X98159500Y-130191304D01*
X98159500Y-130368695D01*
X98194103Y-130542658D01*
X98194106Y-130542667D01*
X98261983Y-130706540D01*
X98261990Y-130706553D01*
X98360535Y-130854034D01*
X98360538Y-130854038D01*
X98485961Y-130979461D01*
X98485965Y-130979464D01*
X98633446Y-131078009D01*
X98633459Y-131078016D01*
X98756363Y-131128923D01*
X98797334Y-131145894D01*
X98797336Y-131145894D01*
X98797341Y-131145896D01*
X98971304Y-131180499D01*
X98971307Y-131180500D01*
X98971309Y-131180500D01*
X99148693Y-131180500D01*
X99148694Y-131180499D01*
X99206682Y-131168964D01*
X99322658Y-131145896D01*
X99322661Y-131145894D01*
X99322666Y-131145894D01*
X99486547Y-131078013D01*
X99634035Y-130979464D01*
X99759464Y-130854035D01*
X99858013Y-130706547D01*
X99896469Y-130613702D01*
X99923345Y-130573480D01*
X100784924Y-129711902D01*
X156189500Y-129711902D01*
X156189500Y-131948097D01*
X156226446Y-132181368D01*
X156299433Y-132405996D01*
X156406524Y-132616171D01*
X156406657Y-132616433D01*
X156545483Y-132807510D01*
X156712490Y-132974517D01*
X156903567Y-133113343D01*
X157002991Y-133164002D01*
X157114003Y-133220566D01*
X157114005Y-133220566D01*
X157114008Y-133220568D01*
X157234412Y-133259689D01*
X157338631Y-133293553D01*
X157571903Y-133330500D01*
X157571908Y-133330500D01*
X157808097Y-133330500D01*
X158041368Y-133293553D01*
X158042876Y-133293063D01*
X158265992Y-133220568D01*
X158476433Y-133113343D01*
X158667510Y-132974517D01*
X158834517Y-132807510D01*
X158973343Y-132616433D01*
X159080568Y-132405992D01*
X159153553Y-132181368D01*
X159168912Y-132084394D01*
X159190500Y-131948097D01*
X159190500Y-129711947D01*
X162290000Y-129711947D01*
X162290000Y-130580000D01*
X163390000Y-130580000D01*
X163390000Y-131080000D01*
X162290000Y-131080000D01*
X162290000Y-131948052D01*
X162326934Y-132181247D01*
X162399897Y-132405802D01*
X162507085Y-132616171D01*
X162645866Y-132807186D01*
X162812813Y-132974133D01*
X163003828Y-133112914D01*
X163214195Y-133220102D01*
X163438744Y-133293063D01*
X163438750Y-133293065D01*
X163540000Y-133309101D01*
X163540000Y-132245686D01*
X163544394Y-132250080D01*
X163635606Y-132302741D01*
X163737339Y-132330000D01*
X163842661Y-132330000D01*
X163944394Y-132302741D01*
X164035606Y-132250080D01*
X164040000Y-132245686D01*
X164040000Y-133309100D01*
X164141249Y-133293065D01*
X164141255Y-133293063D01*
X164365804Y-133220102D01*
X164576171Y-133112914D01*
X164767186Y-132974133D01*
X164934133Y-132807186D01*
X165072914Y-132616171D01*
X165180102Y-132405802D01*
X165253065Y-132181247D01*
X165290000Y-131948052D01*
X165290000Y-131080000D01*
X164190000Y-131080000D01*
X164190000Y-130580000D01*
X165290000Y-130580000D01*
X165290000Y-129711947D01*
X165253065Y-129478752D01*
X165180102Y-129254197D01*
X165072914Y-129043828D01*
X164934133Y-128852813D01*
X164767186Y-128685866D01*
X164576171Y-128547085D01*
X164365802Y-128439897D01*
X164141247Y-128366934D01*
X164040000Y-128350897D01*
X164040000Y-129414314D01*
X164035606Y-129409920D01*
X163944394Y-129357259D01*
X163842661Y-129330000D01*
X163737339Y-129330000D01*
X163635606Y-129357259D01*
X163544394Y-129409920D01*
X163540000Y-129414314D01*
X163540000Y-128350897D01*
X163438752Y-128366934D01*
X163214197Y-128439897D01*
X163003828Y-128547085D01*
X162812813Y-128685866D01*
X162645866Y-128852813D01*
X162507085Y-129043828D01*
X162399897Y-129254197D01*
X162326934Y-129478752D01*
X162290000Y-129711947D01*
X159190500Y-129711947D01*
X159190500Y-129711902D01*
X159153553Y-129478631D01*
X159080566Y-129254003D01*
X159012542Y-129120499D01*
X158973343Y-129043567D01*
X158834517Y-128852490D01*
X158667510Y-128685483D01*
X158476433Y-128546657D01*
X158265996Y-128439433D01*
X158041368Y-128366446D01*
X157808097Y-128329500D01*
X157808092Y-128329500D01*
X157571908Y-128329500D01*
X157571903Y-128329500D01*
X157338631Y-128366446D01*
X157114003Y-128439433D01*
X156903566Y-128546657D01*
X156807347Y-128616565D01*
X156712490Y-128685483D01*
X156712488Y-128685485D01*
X156712487Y-128685485D01*
X156545485Y-128852487D01*
X156545485Y-128852488D01*
X156545483Y-128852490D01*
X156496826Y-128919461D01*
X156406657Y-129043566D01*
X156299433Y-129254003D01*
X156226446Y-129478631D01*
X156189500Y-129711902D01*
X100784924Y-129711902D01*
X101422508Y-129074319D01*
X101483831Y-129040834D01*
X101510189Y-129038000D01*
X106817042Y-129038000D01*
X106864494Y-129047439D01*
X106957334Y-129085894D01*
X106957336Y-129085894D01*
X106957341Y-129085896D01*
X107131304Y-129120499D01*
X107131307Y-129120500D01*
X107131309Y-129120500D01*
X107308693Y-129120500D01*
X107308694Y-129120499D01*
X107366682Y-129108964D01*
X107482658Y-129085896D01*
X107482661Y-129085894D01*
X107482666Y-129085894D01*
X107646547Y-129018013D01*
X107794035Y-128919464D01*
X107919464Y-128794035D01*
X108018013Y-128646547D01*
X108085894Y-128482666D01*
X108089333Y-128465380D01*
X108120499Y-128308695D01*
X108120500Y-128308693D01*
X108120500Y-128131306D01*
X108120499Y-128131304D01*
X108085896Y-127957341D01*
X108085893Y-127957332D01*
X108018016Y-127793459D01*
X108018009Y-127793446D01*
X107919464Y-127645965D01*
X107919461Y-127645961D01*
X107794038Y-127520538D01*
X107794034Y-127520535D01*
X107646553Y-127421990D01*
X107646540Y-127421983D01*
X107482667Y-127354106D01*
X107482658Y-127354103D01*
X107308694Y-127319500D01*
X107308691Y-127319500D01*
X107131309Y-127319500D01*
X107131306Y-127319500D01*
X106957341Y-127354103D01*
X106957332Y-127354106D01*
X106864494Y-127392561D01*
X106817042Y-127402000D01*
X101039429Y-127402000D01*
X100881405Y-127433433D01*
X100881393Y-127433436D01*
X100732538Y-127495093D01*
X100732525Y-127495100D01*
X100598555Y-127584617D01*
X100598551Y-127584620D01*
X98766520Y-129416651D01*
X98726292Y-129443531D01*
X98633455Y-129481985D01*
X98485965Y-129580535D01*
X98485961Y-129580538D01*
X98360538Y-129705961D01*
X98360535Y-129705965D01*
X98261990Y-129853446D01*
X98261983Y-129853459D01*
X98194106Y-130017332D01*
X98194103Y-130017341D01*
X98159500Y-130191304D01*
X82550500Y-130191304D01*
X82550422Y-130190513D01*
X82550500Y-130190101D01*
X82550500Y-130185217D01*
X82551427Y-130185217D01*
X82563442Y-130121868D01*
X82586141Y-130090684D01*
X83992507Y-128684319D01*
X84053830Y-128650834D01*
X84080188Y-128648000D01*
X89870567Y-128648000D01*
X89870568Y-128647999D01*
X90028602Y-128616565D01*
X90177468Y-128554902D01*
X90311445Y-128465382D01*
X90425382Y-128351445D01*
X90514902Y-128217468D01*
X90576565Y-128068602D01*
X90608000Y-127910566D01*
X90608000Y-127749434D01*
X90576565Y-127591398D01*
X90536677Y-127495100D01*
X90514903Y-127442533D01*
X90425380Y-127308552D01*
X90311447Y-127194619D01*
X90177466Y-127105096D01*
X90028602Y-127043435D01*
X90028594Y-127043433D01*
X89870570Y-127012000D01*
X89870566Y-127012000D01*
X83609434Y-127012000D01*
X83609433Y-127012000D01*
X83565444Y-127020750D01*
X83521455Y-127029500D01*
X83465332Y-127040663D01*
X83451397Y-127043435D01*
X83451396Y-127043435D01*
X83302536Y-127105094D01*
X83302534Y-127105095D01*
X83229249Y-127154063D01*
X83229246Y-127154065D01*
X83222219Y-127158761D01*
X83168555Y-127194618D01*
X83054618Y-127308555D01*
X83054616Y-127308557D01*
X83051986Y-127311186D01*
X83051978Y-127311194D01*
X81014620Y-129348551D01*
X81014617Y-129348555D01*
X80925100Y-129482525D01*
X80925093Y-129482538D01*
X80863436Y-129631393D01*
X80863433Y-129631405D01*
X80832000Y-129789429D01*
X80832000Y-129877042D01*
X80822561Y-129924494D01*
X80784106Y-130017332D01*
X80784103Y-130017341D01*
X80749500Y-130191304D01*
X72290500Y-130191304D01*
X72290500Y-125980000D01*
X158010898Y-125980000D01*
X159074314Y-125980000D01*
X159069920Y-125984394D01*
X159017259Y-126075606D01*
X158990000Y-126177339D01*
X158990000Y-126282661D01*
X159017259Y-126384394D01*
X159069920Y-126475606D01*
X159074314Y-126480000D01*
X158010898Y-126480000D01*
X158026934Y-126581247D01*
X158099897Y-126805802D01*
X158207085Y-127016171D01*
X158345866Y-127207186D01*
X158512813Y-127374133D01*
X158703828Y-127512914D01*
X158914197Y-127620102D01*
X159138752Y-127693065D01*
X159138751Y-127693065D01*
X159371948Y-127730000D01*
X160240000Y-127730000D01*
X160240000Y-126630000D01*
X160740000Y-126630000D01*
X160740000Y-127730000D01*
X161608052Y-127730000D01*
X161841247Y-127693065D01*
X162065802Y-127620102D01*
X162276171Y-127512914D01*
X162467186Y-127374133D01*
X162634133Y-127207186D01*
X162772914Y-127016171D01*
X162880102Y-126805802D01*
X162953065Y-126581247D01*
X162969102Y-126480000D01*
X161905686Y-126480000D01*
X161910080Y-126475606D01*
X161962741Y-126384394D01*
X161990000Y-126282661D01*
X161990000Y-126177339D01*
X161962741Y-126075606D01*
X161910080Y-125984394D01*
X161905686Y-125980000D01*
X162969102Y-125980000D01*
X162953065Y-125878752D01*
X162880102Y-125654197D01*
X162772914Y-125443828D01*
X162634133Y-125252813D01*
X162467186Y-125085866D01*
X162276171Y-124947085D01*
X162065802Y-124839897D01*
X161841247Y-124766934D01*
X161841248Y-124766934D01*
X161608052Y-124730000D01*
X160740000Y-124730000D01*
X160740000Y-125830000D01*
X160240000Y-125830000D01*
X160240000Y-124730000D01*
X159371948Y-124730000D01*
X159138752Y-124766934D01*
X158914197Y-124839897D01*
X158703828Y-124947085D01*
X158512813Y-125085866D01*
X158345866Y-125252813D01*
X158207085Y-125443828D01*
X158099897Y-125654197D01*
X158026934Y-125878752D01*
X158010898Y-125980000D01*
X72290500Y-125980000D01*
X72290500Y-112869054D01*
X83159498Y-112869054D01*
X83200423Y-113021787D01*
X83200424Y-113021788D01*
X83211482Y-113040940D01*
X83211484Y-113040943D01*
X83279477Y-113158712D01*
X83279481Y-113158717D01*
X83398349Y-113277585D01*
X83398355Y-113277590D01*
X86663181Y-116542416D01*
X86696666Y-116603739D01*
X86699500Y-116630097D01*
X86699500Y-116718695D01*
X86734103Y-116892658D01*
X86734106Y-116892667D01*
X86801983Y-117056540D01*
X86801990Y-117056553D01*
X86900535Y-117204034D01*
X86900538Y-117204038D01*
X87025961Y-117329461D01*
X87025965Y-117329464D01*
X87173446Y-117428009D01*
X87173459Y-117428016D01*
X87296363Y-117478923D01*
X87337334Y-117495894D01*
X87337336Y-117495894D01*
X87337341Y-117495896D01*
X87511304Y-117530499D01*
X87511307Y-117530500D01*
X87511309Y-117530500D01*
X87688693Y-117530500D01*
X87688694Y-117530499D01*
X87746682Y-117518964D01*
X87862658Y-117495896D01*
X87862661Y-117495894D01*
X87862666Y-117495894D01*
X88026547Y-117428013D01*
X88174035Y-117329464D01*
X88299464Y-117204035D01*
X88398013Y-117056547D01*
X88465894Y-116892666D01*
X88500500Y-116718691D01*
X88500500Y-116541309D01*
X88500500Y-116541306D01*
X88500499Y-116541304D01*
X88465896Y-116367341D01*
X88465893Y-116367332D01*
X88398016Y-116203459D01*
X88398009Y-116203446D01*
X88299464Y-116055965D01*
X88299461Y-116055961D01*
X88174038Y-115930538D01*
X88174034Y-115930535D01*
X88026553Y-115831990D01*
X88026540Y-115831983D01*
X87862667Y-115764106D01*
X87862658Y-115764103D01*
X87688694Y-115729500D01*
X87688691Y-115729500D01*
X87600097Y-115729500D01*
X87533058Y-115709815D01*
X87512416Y-115693181D01*
X87000539Y-115181304D01*
X100607000Y-115181304D01*
X100607000Y-115358695D01*
X100641603Y-115532658D01*
X100641606Y-115532667D01*
X100709483Y-115696540D01*
X100709490Y-115696553D01*
X100808035Y-115844034D01*
X100808038Y-115844038D01*
X100933461Y-115969461D01*
X100933465Y-115969464D01*
X101080946Y-116068009D01*
X101080959Y-116068016D01*
X101203863Y-116118923D01*
X101244834Y-116135894D01*
X101244836Y-116135894D01*
X101244841Y-116135896D01*
X101418804Y-116170499D01*
X101418807Y-116170500D01*
X101418809Y-116170500D01*
X101596193Y-116170500D01*
X101596194Y-116170499D01*
X101654182Y-116158964D01*
X101770158Y-116135896D01*
X101770161Y-116135894D01*
X101770166Y-116135894D01*
X101934047Y-116068013D01*
X102081535Y-115969464D01*
X102206964Y-115844035D01*
X102305513Y-115696547D01*
X102373394Y-115532666D01*
X102408000Y-115358691D01*
X102408000Y-115270097D01*
X102427685Y-115203058D01*
X102444319Y-115182416D01*
X102669916Y-114956819D01*
X102731239Y-114923334D01*
X102757597Y-114920500D01*
X104483244Y-114920500D01*
X104550283Y-114940185D01*
X104596038Y-114992989D01*
X104605982Y-115062147D01*
X104586346Y-115113391D01*
X104519490Y-115213446D01*
X104519483Y-115213459D01*
X104451606Y-115377332D01*
X104451603Y-115377341D01*
X104417000Y-115551304D01*
X104417000Y-115728695D01*
X104451603Y-115902658D01*
X104451606Y-115902667D01*
X104519483Y-116066540D01*
X104519490Y-116066553D01*
X104618035Y-116214034D01*
X104618038Y-116214038D01*
X104743461Y-116339461D01*
X104743465Y-116339464D01*
X104890946Y-116438009D01*
X104890959Y-116438016D01*
X105013863Y-116488923D01*
X105054834Y-116505894D01*
X105054836Y-116505894D01*
X105054841Y-116505896D01*
X105228804Y-116540499D01*
X105228807Y-116540500D01*
X105228809Y-116540500D01*
X105406193Y-116540500D01*
X105406194Y-116540499D01*
X105464182Y-116528964D01*
X105580158Y-116505896D01*
X105580161Y-116505894D01*
X105580166Y-116505894D01*
X105744047Y-116438013D01*
X105891535Y-116339464D01*
X105954181Y-116276817D01*
X106015502Y-116243334D01*
X106041861Y-116240500D01*
X150023331Y-116240500D01*
X150023347Y-116240501D01*
X150030943Y-116240501D01*
X150189054Y-116240501D01*
X150189057Y-116240501D01*
X150341785Y-116199577D01*
X150392147Y-116170500D01*
X150478716Y-116120520D01*
X150590520Y-116008716D01*
X150590520Y-116008714D01*
X150600724Y-115998511D01*
X150600727Y-115998506D01*
X156539236Y-110059999D01*
X162946115Y-110059999D01*
X162946116Y-110060000D01*
X163698012Y-110060000D01*
X163680795Y-110069940D01*
X163624940Y-110125795D01*
X163585444Y-110194204D01*
X163565000Y-110270504D01*
X163565000Y-110349496D01*
X163585444Y-110425796D01*
X163624940Y-110494205D01*
X163680795Y-110550060D01*
X163698012Y-110560000D01*
X162946116Y-110560000D01*
X162951506Y-110587100D01*
X162951507Y-110587103D01*
X163023119Y-110759991D01*
X163023124Y-110760000D01*
X163127086Y-110915589D01*
X163127089Y-110915593D01*
X163259406Y-111047910D01*
X163259410Y-111047913D01*
X163414999Y-111151875D01*
X163415008Y-111151880D01*
X163587894Y-111223491D01*
X163587902Y-111223493D01*
X163771428Y-111259999D01*
X163771431Y-111260000D01*
X164165000Y-111260000D01*
X164165000Y-110610000D01*
X164665000Y-110610000D01*
X164665000Y-111260000D01*
X165058569Y-111260000D01*
X165058571Y-111259999D01*
X165242097Y-111223493D01*
X165242105Y-111223491D01*
X165414991Y-111151880D01*
X165415000Y-111151875D01*
X165570589Y-111047913D01*
X165570593Y-111047910D01*
X165702910Y-110915593D01*
X165702913Y-110915589D01*
X165806875Y-110760000D01*
X165806880Y-110759991D01*
X165878492Y-110587103D01*
X165878493Y-110587100D01*
X165883884Y-110560000D01*
X165131988Y-110560000D01*
X165149205Y-110550060D01*
X165205060Y-110494205D01*
X165244556Y-110425796D01*
X165265000Y-110349496D01*
X165265000Y-110270504D01*
X165244556Y-110194204D01*
X165205060Y-110125795D01*
X165149205Y-110069940D01*
X165131988Y-110060000D01*
X165883884Y-110060000D01*
X165883884Y-110059999D01*
X167266115Y-110059999D01*
X167266116Y-110060000D01*
X168018012Y-110060000D01*
X168000795Y-110069940D01*
X167944940Y-110125795D01*
X167905444Y-110194204D01*
X167885000Y-110270504D01*
X167885000Y-110349496D01*
X167905444Y-110425796D01*
X167944940Y-110494205D01*
X168000795Y-110550060D01*
X168018012Y-110560000D01*
X167266116Y-110560000D01*
X167271506Y-110587100D01*
X167271507Y-110587103D01*
X167343119Y-110759991D01*
X167343124Y-110760000D01*
X167447086Y-110915589D01*
X167447089Y-110915593D01*
X167579406Y-111047910D01*
X167579410Y-111047913D01*
X167734999Y-111151875D01*
X167735008Y-111151880D01*
X167907894Y-111223491D01*
X167907902Y-111223493D01*
X168091428Y-111259999D01*
X168091431Y-111260000D01*
X168335000Y-111260000D01*
X168335000Y-110610000D01*
X168835000Y-110610000D01*
X168835000Y-111260000D01*
X169078569Y-111260000D01*
X169078571Y-111259999D01*
X169262097Y-111223493D01*
X169262105Y-111223491D01*
X169434991Y-111151880D01*
X169435000Y-111151875D01*
X169590589Y-111047913D01*
X169590593Y-111047910D01*
X169722910Y-110915593D01*
X169722913Y-110915589D01*
X169826875Y-110760000D01*
X169826880Y-110759991D01*
X169898492Y-110587103D01*
X169898493Y-110587100D01*
X169903884Y-110560000D01*
X169151988Y-110560000D01*
X169169205Y-110550060D01*
X169225060Y-110494205D01*
X169264556Y-110425796D01*
X169285000Y-110349496D01*
X169285000Y-110270504D01*
X169264556Y-110194204D01*
X169225060Y-110125795D01*
X169169205Y-110069940D01*
X169151988Y-110060000D01*
X169903884Y-110060000D01*
X169903884Y-110059999D01*
X169898493Y-110032899D01*
X169898492Y-110032896D01*
X169826880Y-109860008D01*
X169826875Y-109859999D01*
X169722913Y-109704410D01*
X169722910Y-109704406D01*
X169590593Y-109572089D01*
X169590589Y-109572086D01*
X169435000Y-109468124D01*
X169434991Y-109468119D01*
X169262105Y-109396508D01*
X169262097Y-109396506D01*
X169078570Y-109360000D01*
X168835000Y-109360000D01*
X168835000Y-110010000D01*
X168335000Y-110010000D01*
X168335000Y-109360000D01*
X168091430Y-109360000D01*
X167907902Y-109396506D01*
X167907894Y-109396508D01*
X167735008Y-109468119D01*
X167734999Y-109468124D01*
X167579410Y-109572086D01*
X167579406Y-109572089D01*
X167447089Y-109704406D01*
X167447086Y-109704410D01*
X167343124Y-109859999D01*
X167343119Y-109860008D01*
X167271507Y-110032896D01*
X167271506Y-110032899D01*
X167266115Y-110059999D01*
X165883884Y-110059999D01*
X165878493Y-110032899D01*
X165878492Y-110032896D01*
X165806880Y-109860008D01*
X165806875Y-109859999D01*
X165702913Y-109704410D01*
X165702910Y-109704406D01*
X165570593Y-109572089D01*
X165570589Y-109572086D01*
X165415000Y-109468124D01*
X165414994Y-109468121D01*
X165353389Y-109442603D01*
X165298986Y-109398761D01*
X165276922Y-109332467D01*
X165294202Y-109264768D01*
X165313156Y-109240367D01*
X165335509Y-109218015D01*
X165407984Y-109092485D01*
X165445500Y-108952475D01*
X165445500Y-108807525D01*
X165407984Y-108667515D01*
X165369312Y-108600534D01*
X165335511Y-108541988D01*
X165335506Y-108541982D01*
X165233017Y-108439493D01*
X165233011Y-108439488D01*
X165107488Y-108367017D01*
X165107489Y-108367017D01*
X165096006Y-108363940D01*
X164967475Y-108329500D01*
X164822525Y-108329500D01*
X164693993Y-108363940D01*
X164682511Y-108367017D01*
X164556988Y-108439488D01*
X164556982Y-108439493D01*
X164454493Y-108541982D01*
X164454488Y-108541988D01*
X164382017Y-108667511D01*
X164382016Y-108667515D01*
X164344500Y-108807525D01*
X164344500Y-108952475D01*
X164367240Y-109037341D01*
X164382017Y-109092488D01*
X164454488Y-109218011D01*
X164454490Y-109218013D01*
X164454491Y-109218015D01*
X164556985Y-109320509D01*
X164602999Y-109347075D01*
X164651215Y-109397640D01*
X164665000Y-109454462D01*
X164665000Y-110010000D01*
X164165000Y-110010000D01*
X164165000Y-109360000D01*
X163771430Y-109360000D01*
X163587902Y-109396506D01*
X163587894Y-109396508D01*
X163415008Y-109468119D01*
X163414999Y-109468124D01*
X163259410Y-109572086D01*
X163259406Y-109572089D01*
X163127089Y-109704406D01*
X163127086Y-109704410D01*
X163023124Y-109859999D01*
X163023119Y-109860008D01*
X162951507Y-110032896D01*
X162951506Y-110032899D01*
X162946115Y-110059999D01*
X156539236Y-110059999D01*
X161990520Y-104608716D01*
X162069577Y-104471784D01*
X162110501Y-104319057D01*
X162110501Y-104160942D01*
X162110501Y-104153347D01*
X162110500Y-104153329D01*
X162110500Y-101419999D01*
X162946115Y-101419999D01*
X162946116Y-101420000D01*
X163698012Y-101420000D01*
X163680795Y-101429940D01*
X163624940Y-101485795D01*
X163585444Y-101554204D01*
X163565000Y-101630504D01*
X163565000Y-101709496D01*
X163585444Y-101785796D01*
X163624940Y-101854205D01*
X163680795Y-101910060D01*
X163698012Y-101920000D01*
X162946116Y-101920000D01*
X162951506Y-101947100D01*
X162951507Y-101947103D01*
X163023119Y-102119991D01*
X163023124Y-102120000D01*
X163127086Y-102275589D01*
X163127089Y-102275593D01*
X163259406Y-102407910D01*
X163259410Y-102407913D01*
X163414999Y-102511875D01*
X163415008Y-102511880D01*
X163587894Y-102583491D01*
X163587902Y-102583493D01*
X163771428Y-102619999D01*
X163771431Y-102620000D01*
X164165000Y-102620000D01*
X164165000Y-101970000D01*
X164665000Y-101970000D01*
X164665000Y-102525537D01*
X164645315Y-102592576D01*
X164603000Y-102632924D01*
X164556988Y-102659489D01*
X164556982Y-102659493D01*
X164454493Y-102761982D01*
X164454488Y-102761988D01*
X164382017Y-102887511D01*
X164382016Y-102887515D01*
X164344500Y-103027525D01*
X164344500Y-103172475D01*
X164356415Y-103216941D01*
X164382017Y-103312488D01*
X164454488Y-103438011D01*
X164454490Y-103438013D01*
X164454491Y-103438015D01*
X164556985Y-103540509D01*
X164556986Y-103540510D01*
X164556988Y-103540511D01*
X164682511Y-103612982D01*
X164682512Y-103612982D01*
X164682515Y-103612984D01*
X164822525Y-103650500D01*
X164822528Y-103650500D01*
X164967472Y-103650500D01*
X164967475Y-103650500D01*
X165107485Y-103612984D01*
X165233015Y-103540509D01*
X165335509Y-103438015D01*
X165407984Y-103312485D01*
X165445500Y-103172475D01*
X165445500Y-103027525D01*
X165407984Y-102887515D01*
X165335509Y-102761985D01*
X165313162Y-102739638D01*
X165279677Y-102678315D01*
X165284661Y-102608623D01*
X165326533Y-102552690D01*
X165353391Y-102537396D01*
X165414987Y-102511882D01*
X165415000Y-102511875D01*
X165570589Y-102407913D01*
X165570593Y-102407910D01*
X165702910Y-102275593D01*
X165702913Y-102275589D01*
X165806875Y-102120000D01*
X165806880Y-102119991D01*
X165878492Y-101947103D01*
X165878493Y-101947100D01*
X165883884Y-101920000D01*
X165131988Y-101920000D01*
X165149205Y-101910060D01*
X165205060Y-101854205D01*
X165244556Y-101785796D01*
X165265000Y-101709496D01*
X165265000Y-101630504D01*
X165244556Y-101554204D01*
X165205060Y-101485795D01*
X165149205Y-101429940D01*
X165131988Y-101420000D01*
X165883884Y-101420000D01*
X165883884Y-101419999D01*
X167266115Y-101419999D01*
X167266116Y-101420000D01*
X168018012Y-101420000D01*
X168000795Y-101429940D01*
X167944940Y-101485795D01*
X167905444Y-101554204D01*
X167885000Y-101630504D01*
X167885000Y-101709496D01*
X167905444Y-101785796D01*
X167944940Y-101854205D01*
X168000795Y-101910060D01*
X168018012Y-101920000D01*
X167266116Y-101920000D01*
X167271506Y-101947100D01*
X167271507Y-101947103D01*
X167343119Y-102119991D01*
X167343124Y-102120000D01*
X167447086Y-102275589D01*
X167447089Y-102275593D01*
X167579406Y-102407910D01*
X167579410Y-102407913D01*
X167734999Y-102511875D01*
X167735008Y-102511880D01*
X167907894Y-102583491D01*
X167907902Y-102583493D01*
X168091428Y-102619999D01*
X168091431Y-102620000D01*
X168335000Y-102620000D01*
X168335000Y-101970000D01*
X168835000Y-101970000D01*
X168835000Y-102620000D01*
X169078569Y-102620000D01*
X169078571Y-102619999D01*
X169262097Y-102583493D01*
X169262105Y-102583491D01*
X169434991Y-102511880D01*
X169435000Y-102511875D01*
X169590589Y-102407913D01*
X169590593Y-102407910D01*
X169722910Y-102275593D01*
X169722913Y-102275589D01*
X169826875Y-102120000D01*
X169826880Y-102119991D01*
X169898492Y-101947103D01*
X169898493Y-101947100D01*
X169903884Y-101920000D01*
X169151988Y-101920000D01*
X169169205Y-101910060D01*
X169225060Y-101854205D01*
X169264556Y-101785796D01*
X169285000Y-101709496D01*
X169285000Y-101630504D01*
X169264556Y-101554204D01*
X169225060Y-101485795D01*
X169169205Y-101429940D01*
X169151988Y-101420000D01*
X169903884Y-101420000D01*
X169903884Y-101419999D01*
X169898493Y-101392899D01*
X169898492Y-101392896D01*
X169826880Y-101220008D01*
X169826875Y-101219999D01*
X169722913Y-101064410D01*
X169722910Y-101064406D01*
X169590593Y-100932089D01*
X169590589Y-100932086D01*
X169435000Y-100828124D01*
X169434991Y-100828119D01*
X169262105Y-100756508D01*
X169262097Y-100756506D01*
X169078570Y-100720000D01*
X168835000Y-100720000D01*
X168835000Y-101370000D01*
X168335000Y-101370000D01*
X168335000Y-100720000D01*
X168091430Y-100720000D01*
X167907902Y-100756506D01*
X167907894Y-100756508D01*
X167735008Y-100828119D01*
X167734999Y-100828124D01*
X167579410Y-100932086D01*
X167579406Y-100932089D01*
X167447089Y-101064406D01*
X167447086Y-101064410D01*
X167343124Y-101219999D01*
X167343119Y-101220008D01*
X167271507Y-101392896D01*
X167271506Y-101392899D01*
X167266115Y-101419999D01*
X165883884Y-101419999D01*
X165878493Y-101392899D01*
X165878492Y-101392896D01*
X165806880Y-101220008D01*
X165806875Y-101219999D01*
X165702913Y-101064410D01*
X165702910Y-101064406D01*
X165570593Y-100932089D01*
X165570589Y-100932086D01*
X165415000Y-100828124D01*
X165414991Y-100828119D01*
X165242105Y-100756508D01*
X165242097Y-100756506D01*
X165058570Y-100720000D01*
X164665000Y-100720000D01*
X164665000Y-101370000D01*
X164165000Y-101370000D01*
X164165000Y-100720000D01*
X163771430Y-100720000D01*
X163587902Y-100756506D01*
X163587894Y-100756508D01*
X163415008Y-100828119D01*
X163414999Y-100828124D01*
X163259410Y-100932086D01*
X163259406Y-100932089D01*
X163127089Y-101064406D01*
X163127086Y-101064410D01*
X163023124Y-101219999D01*
X163023119Y-101220008D01*
X162951507Y-101392896D01*
X162951506Y-101392899D01*
X162946115Y-101419999D01*
X162110500Y-101419999D01*
X162110500Y-79566304D01*
X163134500Y-79566304D01*
X163134500Y-79743695D01*
X163169103Y-79917658D01*
X163169106Y-79917667D01*
X163236983Y-80081540D01*
X163236990Y-80081553D01*
X163335535Y-80229034D01*
X163335538Y-80229038D01*
X163460961Y-80354461D01*
X163460965Y-80354464D01*
X163608446Y-80453009D01*
X163608459Y-80453016D01*
X163674813Y-80480500D01*
X163772334Y-80520894D01*
X163772336Y-80520894D01*
X163772341Y-80520896D01*
X163946304Y-80555499D01*
X163946307Y-80555500D01*
X163946309Y-80555500D01*
X164034903Y-80555500D01*
X164101942Y-80575185D01*
X164122584Y-80591819D01*
X168718584Y-85187819D01*
X168752069Y-85249142D01*
X168747085Y-85318834D01*
X168705213Y-85374767D01*
X168639749Y-85399184D01*
X168630904Y-85399500D01*
X168542130Y-85399500D01*
X168542123Y-85399501D01*
X168482516Y-85405908D01*
X168347671Y-85456202D01*
X168347664Y-85456206D01*
X168232455Y-85542452D01*
X168232452Y-85542455D01*
X168146206Y-85657664D01*
X168146202Y-85657671D01*
X168095908Y-85792517D01*
X168091664Y-85831996D01*
X168089501Y-85852123D01*
X168089500Y-85852135D01*
X168089500Y-87647870D01*
X168089501Y-87647876D01*
X168095908Y-87707483D01*
X168146202Y-87842328D01*
X168146206Y-87842335D01*
X168232452Y-87957544D01*
X168232455Y-87957547D01*
X168347664Y-88043793D01*
X168347671Y-88043797D01*
X168479082Y-88092810D01*
X168535016Y-88134681D01*
X168559433Y-88200145D01*
X168544582Y-88268418D01*
X168523431Y-88296673D01*
X168409889Y-88410215D01*
X168284951Y-88582179D01*
X168188444Y-88771585D01*
X168122753Y-88973760D01*
X168089500Y-89183713D01*
X168089500Y-89396286D01*
X168109323Y-89521447D01*
X168122754Y-89606243D01*
X168181344Y-89786565D01*
X168188444Y-89808414D01*
X168284951Y-89997820D01*
X168409890Y-90169786D01*
X168560213Y-90320109D01*
X168732179Y-90445048D01*
X168732181Y-90445049D01*
X168732184Y-90445051D01*
X168921588Y-90541557D01*
X169123757Y-90607246D01*
X169333713Y-90640500D01*
X169333714Y-90640500D01*
X169546286Y-90640500D01*
X169546287Y-90640500D01*
X169756243Y-90607246D01*
X169958412Y-90541557D01*
X170147816Y-90445051D01*
X170227076Y-90387466D01*
X170319786Y-90320109D01*
X170319788Y-90320106D01*
X170319792Y-90320104D01*
X170470104Y-90169792D01*
X170470106Y-90169788D01*
X170470109Y-90169786D01*
X170595048Y-89997820D01*
X170595047Y-89997820D01*
X170595051Y-89997816D01*
X170691557Y-89808412D01*
X170757246Y-89606243D01*
X170790500Y-89396287D01*
X170790500Y-89183713D01*
X170757246Y-88973757D01*
X170691557Y-88771588D01*
X170595051Y-88582184D01*
X170595049Y-88582181D01*
X170595048Y-88582179D01*
X170470109Y-88410213D01*
X170356569Y-88296673D01*
X170323084Y-88235350D01*
X170328068Y-88165658D01*
X170369940Y-88109725D01*
X170400915Y-88092810D01*
X170532331Y-88043796D01*
X170647546Y-87957546D01*
X170733796Y-87842331D01*
X170784091Y-87707483D01*
X170790500Y-87647873D01*
X170790499Y-85852128D01*
X170784091Y-85792517D01*
X170734998Y-85660893D01*
X170733797Y-85657671D01*
X170733793Y-85657664D01*
X170647547Y-85542455D01*
X170647544Y-85542452D01*
X170532335Y-85456206D01*
X170532328Y-85456202D01*
X170397482Y-85405908D01*
X170397483Y-85405908D01*
X170337883Y-85399501D01*
X170337881Y-85399500D01*
X170337873Y-85399500D01*
X170337865Y-85399500D01*
X170164500Y-85399500D01*
X170097461Y-85379815D01*
X170051706Y-85327011D01*
X170040500Y-85275500D01*
X170040500Y-84980946D01*
X170040499Y-84980939D01*
X170023693Y-84918216D01*
X169999577Y-84828215D01*
X169966511Y-84770943D01*
X169920520Y-84691284D01*
X169808716Y-84579480D01*
X169808715Y-84579479D01*
X169804385Y-84575149D01*
X169804374Y-84575139D01*
X164971819Y-79742584D01*
X164938334Y-79681261D01*
X164935500Y-79654903D01*
X164935500Y-79566306D01*
X164935499Y-79566304D01*
X164900896Y-79392341D01*
X164900893Y-79392332D01*
X164895244Y-79378695D01*
X164871709Y-79321874D01*
X164833016Y-79228459D01*
X164833009Y-79228446D01*
X164734464Y-79080965D01*
X164734461Y-79080961D01*
X164609038Y-78955538D01*
X164609034Y-78955535D01*
X164461553Y-78856990D01*
X164461540Y-78856983D01*
X164297667Y-78789106D01*
X164297658Y-78789103D01*
X164123694Y-78754500D01*
X164123691Y-78754500D01*
X163946309Y-78754500D01*
X163946306Y-78754500D01*
X163772341Y-78789103D01*
X163772332Y-78789106D01*
X163608459Y-78856983D01*
X163608446Y-78856990D01*
X163460965Y-78955535D01*
X163460961Y-78955538D01*
X163335538Y-79080961D01*
X163335535Y-79080965D01*
X163236990Y-79228446D01*
X163236983Y-79228459D01*
X163169106Y-79392332D01*
X163169103Y-79392341D01*
X163134500Y-79566304D01*
X162110500Y-79566304D01*
X162110500Y-72130097D01*
X162130185Y-72063058D01*
X162146819Y-72042416D01*
X162432417Y-71756819D01*
X162493740Y-71723334D01*
X162520098Y-71720500D01*
X162608693Y-71720500D01*
X162608694Y-71720499D01*
X162666682Y-71708964D01*
X162782658Y-71685896D01*
X162782661Y-71685894D01*
X162782666Y-71685894D01*
X162946547Y-71618013D01*
X163094035Y-71519464D01*
X163219464Y-71394035D01*
X163318013Y-71246547D01*
X163385894Y-71082666D01*
X163420500Y-70908691D01*
X163420500Y-70731309D01*
X163420500Y-70731306D01*
X163420499Y-70731304D01*
X163385896Y-70557341D01*
X163385893Y-70557332D01*
X163318016Y-70393459D01*
X163318009Y-70393446D01*
X163219464Y-70245965D01*
X163219461Y-70245961D01*
X163094038Y-70120538D01*
X163094034Y-70120535D01*
X162946553Y-70021990D01*
X162946540Y-70021983D01*
X162782667Y-69954106D01*
X162782658Y-69954103D01*
X162608694Y-69919500D01*
X162608691Y-69919500D01*
X162431309Y-69919500D01*
X162431306Y-69919500D01*
X162257341Y-69954103D01*
X162257332Y-69954106D01*
X162093459Y-70021983D01*
X162093446Y-70021990D01*
X161945968Y-70120533D01*
X161945960Y-70120539D01*
X161942675Y-70123825D01*
X161881350Y-70157306D01*
X161811659Y-70152317D01*
X161767319Y-70123819D01*
X161694038Y-70050538D01*
X161694034Y-70050535D01*
X161546553Y-69951990D01*
X161546540Y-69951983D01*
X161382667Y-69884106D01*
X161382658Y-69884103D01*
X161208694Y-69849500D01*
X161208691Y-69849500D01*
X161031309Y-69849500D01*
X161031306Y-69849500D01*
X160857341Y-69884103D01*
X160857332Y-69884106D01*
X160693459Y-69951983D01*
X160693446Y-69951990D01*
X160545498Y-70050847D01*
X160478820Y-70071725D01*
X160411440Y-70053240D01*
X160388926Y-70035426D01*
X160364038Y-70010538D01*
X160364034Y-70010535D01*
X160216553Y-69911990D01*
X160216540Y-69911983D01*
X160052667Y-69844106D01*
X160052658Y-69844103D01*
X159878694Y-69809500D01*
X159878691Y-69809500D01*
X159701309Y-69809500D01*
X159701306Y-69809500D01*
X159527341Y-69844103D01*
X159527332Y-69844106D01*
X159363459Y-69911983D01*
X159363446Y-69911990D01*
X159215965Y-70010535D01*
X159215961Y-70010538D01*
X159090538Y-70135961D01*
X159090535Y-70135965D01*
X158991990Y-70283446D01*
X158991983Y-70283459D01*
X158924106Y-70447332D01*
X158924103Y-70447341D01*
X158889500Y-70621304D01*
X158889500Y-70798695D01*
X158924103Y-70972658D01*
X158924106Y-70972667D01*
X158991983Y-71136540D01*
X158991990Y-71136553D01*
X159090534Y-71284033D01*
X159090535Y-71284034D01*
X159090536Y-71284035D01*
X159153182Y-71346681D01*
X159186666Y-71408002D01*
X159189500Y-71434361D01*
X159189500Y-96803044D01*
X159169815Y-96870083D01*
X159153181Y-96890725D01*
X143560725Y-112483181D01*
X143499402Y-112516666D01*
X143473044Y-112519500D01*
X118420097Y-112519500D01*
X118353058Y-112499815D01*
X118332416Y-112483181D01*
X114787590Y-108938355D01*
X114787588Y-108938352D01*
X114668717Y-108819481D01*
X114668716Y-108819480D01*
X114581904Y-108769360D01*
X114581904Y-108769359D01*
X114581900Y-108769358D01*
X114531785Y-108740423D01*
X114379057Y-108699499D01*
X114220943Y-108699499D01*
X114213347Y-108699499D01*
X114213331Y-108699500D01*
X105144361Y-108699500D01*
X105077322Y-108679815D01*
X105056684Y-108663185D01*
X104994035Y-108600536D01*
X104994034Y-108600535D01*
X104994033Y-108600534D01*
X104846553Y-108501990D01*
X104846540Y-108501983D01*
X104682667Y-108434106D01*
X104682658Y-108434103D01*
X104508694Y-108399500D01*
X104508691Y-108399500D01*
X104331309Y-108399500D01*
X104331306Y-108399500D01*
X104157341Y-108434103D01*
X104157332Y-108434106D01*
X103993459Y-108501983D01*
X103993446Y-108501990D01*
X103845965Y-108600535D01*
X103845961Y-108600538D01*
X103720538Y-108725961D01*
X103720535Y-108725965D01*
X103621990Y-108873446D01*
X103621983Y-108873459D01*
X103554106Y-109037332D01*
X103554103Y-109037341D01*
X103519500Y-109211304D01*
X103519500Y-109388695D01*
X103554103Y-109562658D01*
X103554106Y-109562667D01*
X103621983Y-109726540D01*
X103621990Y-109726553D01*
X103720535Y-109874034D01*
X103720538Y-109874038D01*
X103845961Y-109999461D01*
X103845965Y-109999464D01*
X103993446Y-110098009D01*
X103993459Y-110098016D01*
X104060525Y-110125795D01*
X104157334Y-110165894D01*
X104157336Y-110165894D01*
X104157341Y-110165896D01*
X104331304Y-110200499D01*
X104331307Y-110200500D01*
X104331309Y-110200500D01*
X104508693Y-110200500D01*
X104508694Y-110200499D01*
X104566682Y-110188964D01*
X104682658Y-110165896D01*
X104682661Y-110165894D01*
X104682666Y-110165894D01*
X104846547Y-110098013D01*
X104994035Y-109999464D01*
X105056681Y-109936817D01*
X105118002Y-109903334D01*
X105144361Y-109900500D01*
X113999903Y-109900500D01*
X114066942Y-109920185D01*
X114087584Y-109936819D01*
X117639478Y-113488713D01*
X117639480Y-113488716D01*
X117658586Y-113507822D01*
X117677911Y-113543217D01*
X117692067Y-113569142D01*
X117692066Y-113569144D01*
X117692068Y-113569147D01*
X117690182Y-113595499D01*
X117687083Y-113638834D01*
X117687081Y-113638836D01*
X117687081Y-113638839D01*
X117671438Y-113659733D01*
X117645211Y-113694767D01*
X117645208Y-113694767D01*
X117645207Y-113694770D01*
X117619572Y-113704330D01*
X117579747Y-113719184D01*
X117570901Y-113719500D01*
X102544169Y-113719500D01*
X102544153Y-113719499D01*
X102536557Y-113719499D01*
X102378443Y-113719499D01*
X102298510Y-113740917D01*
X102225716Y-113760422D01*
X102192706Y-113779481D01*
X102192705Y-113779480D01*
X102088787Y-113839477D01*
X102088782Y-113839481D01*
X101976978Y-113951286D01*
X101595084Y-114333181D01*
X101533761Y-114366666D01*
X101507403Y-114369500D01*
X101418806Y-114369500D01*
X101244841Y-114404103D01*
X101244832Y-114404106D01*
X101080959Y-114471983D01*
X101080946Y-114471990D01*
X100933465Y-114570535D01*
X100933461Y-114570538D01*
X100808038Y-114695961D01*
X100808035Y-114695965D01*
X100709490Y-114843446D01*
X100709483Y-114843459D01*
X100641606Y-115007332D01*
X100641603Y-115007341D01*
X100607000Y-115181304D01*
X87000539Y-115181304D01*
X84396819Y-112577584D01*
X84363334Y-112516261D01*
X84360500Y-112489903D01*
X84360500Y-111270236D01*
X84380185Y-111203197D01*
X84432989Y-111157442D01*
X84502147Y-111147498D01*
X84531948Y-111155674D01*
X84677334Y-111215894D01*
X84677336Y-111215894D01*
X84677341Y-111215896D01*
X84851304Y-111250499D01*
X84851307Y-111250500D01*
X84851309Y-111250500D01*
X85028693Y-111250500D01*
X85028694Y-111250499D01*
X85086682Y-111238964D01*
X85202658Y-111215896D01*
X85202661Y-111215894D01*
X85202666Y-111215894D01*
X85366547Y-111148013D01*
X85514035Y-111049464D01*
X85639464Y-110924035D01*
X85738013Y-110776547D01*
X85805894Y-110612666D01*
X85806425Y-110610000D01*
X85828964Y-110496682D01*
X85840500Y-110438691D01*
X85840500Y-110261309D01*
X85840500Y-110261306D01*
X85840499Y-110261304D01*
X85805896Y-110087341D01*
X85805893Y-110087332D01*
X85738016Y-109923459D01*
X85738009Y-109923446D01*
X85639464Y-109775965D01*
X85639461Y-109775961D01*
X85606819Y-109743319D01*
X85573334Y-109681996D01*
X85570500Y-109655638D01*
X85570500Y-88919429D01*
X132182000Y-88919429D01*
X132182000Y-89080570D01*
X132213433Y-89238594D01*
X132213435Y-89238602D01*
X132275096Y-89387466D01*
X132364619Y-89521447D01*
X132478552Y-89635380D01*
X132612533Y-89724903D01*
X132686965Y-89755733D01*
X132761398Y-89786565D01*
X132919429Y-89817999D01*
X132919433Y-89818000D01*
X132919434Y-89818000D01*
X138609811Y-89818000D01*
X138639251Y-89826644D01*
X138669238Y-89833168D01*
X138674253Y-89836922D01*
X138676850Y-89837685D01*
X138697492Y-89854319D01*
X138755491Y-89912318D01*
X138788976Y-89973641D01*
X138783992Y-90043333D01*
X138755491Y-90087680D01*
X138364620Y-90478551D01*
X138364617Y-90478555D01*
X138275098Y-90612528D01*
X138275097Y-90612531D01*
X138213436Y-90761396D01*
X138213434Y-90761404D01*
X138182000Y-90919431D01*
X138182000Y-90919434D01*
X138182000Y-91080566D01*
X138182000Y-91080568D01*
X138181999Y-91080568D01*
X138213434Y-91238595D01*
X138213436Y-91238603D01*
X138275097Y-91387468D01*
X138275098Y-91387471D01*
X138364617Y-91521444D01*
X138364620Y-91521448D01*
X138478551Y-91635379D01*
X138478555Y-91635382D01*
X138612528Y-91724901D01*
X138612530Y-91724901D01*
X138612532Y-91724903D01*
X138761398Y-91786564D01*
X138800098Y-91794262D01*
X138919431Y-91818000D01*
X138919434Y-91818000D01*
X139080568Y-91818000D01*
X139160123Y-91802174D01*
X139238602Y-91786564D01*
X139387468Y-91724903D01*
X139521445Y-91635382D01*
X140302507Y-90854318D01*
X140363830Y-90820834D01*
X140390188Y-90818000D01*
X143080567Y-90818000D01*
X143080568Y-90817999D01*
X143238602Y-90786565D01*
X143387468Y-90724902D01*
X143521445Y-90635382D01*
X143635382Y-90521445D01*
X143724902Y-90387468D01*
X143786565Y-90238602D01*
X143818000Y-90080566D01*
X143818000Y-89919434D01*
X143786565Y-89761398D01*
X143734366Y-89635380D01*
X143724903Y-89612533D01*
X143635380Y-89478552D01*
X143521447Y-89364619D01*
X143387466Y-89275096D01*
X143238602Y-89213435D01*
X143238594Y-89213433D01*
X143080570Y-89182000D01*
X143080566Y-89182000D01*
X140390188Y-89182000D01*
X140323149Y-89162315D01*
X140302507Y-89145681D01*
X139521448Y-88364620D01*
X139521444Y-88364617D01*
X139387474Y-88275100D01*
X139387461Y-88275093D01*
X139238606Y-88213436D01*
X139238594Y-88213433D01*
X139080570Y-88182000D01*
X139080566Y-88182000D01*
X132919434Y-88182000D01*
X132919429Y-88182000D01*
X132761405Y-88213433D01*
X132761397Y-88213435D01*
X132612533Y-88275096D01*
X132478552Y-88364619D01*
X132364619Y-88478552D01*
X132275096Y-88612533D01*
X132213435Y-88761397D01*
X132213433Y-88761405D01*
X132182000Y-88919429D01*
X85570500Y-88919429D01*
X85570500Y-85450097D01*
X85590185Y-85383058D01*
X85606819Y-85362416D01*
X92127931Y-78841304D01*
X100399500Y-78841304D01*
X100399500Y-79018695D01*
X100434103Y-79192658D01*
X100434106Y-79192667D01*
X100501983Y-79356540D01*
X100501990Y-79356553D01*
X100600535Y-79504034D01*
X100600538Y-79504038D01*
X100725961Y-79629461D01*
X100725965Y-79629464D01*
X100873449Y-79728011D01*
X100873451Y-79728011D01*
X100873453Y-79728013D01*
X100966291Y-79766467D01*
X101006520Y-79793347D01*
X105458551Y-84245379D01*
X105458554Y-84245382D01*
X105554456Y-84309461D01*
X105592531Y-84334902D01*
X105613211Y-84343468D01*
X105636124Y-84352959D01*
X105636129Y-84352960D01*
X105636133Y-84352962D01*
X105741398Y-84396565D01*
X105899429Y-84427999D01*
X105899433Y-84428000D01*
X105899434Y-84428000D01*
X106060565Y-84428000D01*
X127327042Y-84428000D01*
X127374494Y-84437439D01*
X127467334Y-84475894D01*
X127467336Y-84475894D01*
X127467341Y-84475896D01*
X127641304Y-84510499D01*
X127641307Y-84510500D01*
X127641309Y-84510500D01*
X127818693Y-84510500D01*
X127818694Y-84510499D01*
X127915306Y-84491282D01*
X127992658Y-84475896D01*
X127992661Y-84475894D01*
X127992666Y-84475894D01*
X128156547Y-84408013D01*
X128304035Y-84309464D01*
X128429464Y-84184035D01*
X128528013Y-84036547D01*
X128595894Y-83872666D01*
X128630500Y-83698691D01*
X128630500Y-83521309D01*
X128630500Y-83521306D01*
X128630499Y-83521304D01*
X128595896Y-83347341D01*
X128595893Y-83347332D01*
X128528016Y-83183459D01*
X128528009Y-83183446D01*
X128429464Y-83035965D01*
X128429461Y-83035961D01*
X128304038Y-82910538D01*
X128304034Y-82910535D01*
X128156553Y-82811990D01*
X128156540Y-82811983D01*
X127992667Y-82744106D01*
X127992658Y-82744103D01*
X127818694Y-82709500D01*
X127818691Y-82709500D01*
X127641309Y-82709500D01*
X127641306Y-82709500D01*
X127467341Y-82744103D01*
X127467332Y-82744106D01*
X127374494Y-82782561D01*
X127327042Y-82792000D01*
X106370189Y-82792000D01*
X106303150Y-82772315D01*
X106282508Y-82755681D01*
X102163347Y-78636520D01*
X102136467Y-78596291D01*
X102098013Y-78503453D01*
X102098011Y-78503451D01*
X102098011Y-78503449D01*
X101999464Y-78355965D01*
X101999461Y-78355961D01*
X101874038Y-78230538D01*
X101874034Y-78230535D01*
X101726553Y-78131990D01*
X101726540Y-78131983D01*
X101562667Y-78064106D01*
X101562658Y-78064103D01*
X101388694Y-78029500D01*
X101388691Y-78029500D01*
X101211309Y-78029500D01*
X101211306Y-78029500D01*
X101037341Y-78064103D01*
X101037332Y-78064106D01*
X100873459Y-78131983D01*
X100873446Y-78131990D01*
X100725965Y-78230535D01*
X100725961Y-78230538D01*
X100600538Y-78355961D01*
X100600535Y-78355965D01*
X100501990Y-78503446D01*
X100501983Y-78503459D01*
X100434106Y-78667332D01*
X100434103Y-78667341D01*
X100399500Y-78841304D01*
X92127931Y-78841304D01*
X93937931Y-77031304D01*
X114699500Y-77031304D01*
X114699500Y-77208695D01*
X114734103Y-77382658D01*
X114734106Y-77382667D01*
X114801983Y-77546540D01*
X114801990Y-77546553D01*
X114900535Y-77694034D01*
X114900538Y-77694038D01*
X115025961Y-77819461D01*
X115025965Y-77819464D01*
X115173446Y-77918009D01*
X115173459Y-77918016D01*
X115296363Y-77968923D01*
X115337334Y-77985894D01*
X115337336Y-77985894D01*
X115337341Y-77985896D01*
X115511304Y-78020499D01*
X115511307Y-78020500D01*
X115511309Y-78020500D01*
X115688693Y-78020500D01*
X115688694Y-78020499D01*
X115746682Y-78008964D01*
X115862658Y-77985896D01*
X115862661Y-77985894D01*
X115862666Y-77985894D01*
X116026547Y-77918013D01*
X116174035Y-77819464D01*
X116299464Y-77694035D01*
X116345185Y-77625608D01*
X116398797Y-77580804D01*
X116448287Y-77570500D01*
X118463331Y-77570500D01*
X118463347Y-77570501D01*
X118470943Y-77570501D01*
X118629054Y-77570501D01*
X118629057Y-77570501D01*
X118781785Y-77529577D01*
X118852558Y-77488716D01*
X118918716Y-77450520D01*
X119030520Y-77338716D01*
X119030520Y-77338714D01*
X119040724Y-77328511D01*
X119040727Y-77328506D01*
X123587930Y-72781304D01*
X125309500Y-72781304D01*
X125309500Y-72958695D01*
X125344103Y-73132658D01*
X125344106Y-73132667D01*
X125411983Y-73296540D01*
X125411990Y-73296553D01*
X125510535Y-73444034D01*
X125510538Y-73444038D01*
X125635961Y-73569461D01*
X125635965Y-73569464D01*
X125783446Y-73668009D01*
X125783459Y-73668016D01*
X125822305Y-73684106D01*
X125947334Y-73735894D01*
X125947336Y-73735894D01*
X125947341Y-73735896D01*
X126121304Y-73770499D01*
X126121307Y-73770500D01*
X126121309Y-73770500D01*
X126298693Y-73770500D01*
X126298694Y-73770499D01*
X126356682Y-73758964D01*
X126472658Y-73735896D01*
X126472661Y-73735894D01*
X126472666Y-73735894D01*
X126636547Y-73668013D01*
X126784035Y-73569464D01*
X126846681Y-73506817D01*
X126908002Y-73473334D01*
X126934361Y-73470500D01*
X129105639Y-73470500D01*
X129172678Y-73490185D01*
X129193315Y-73506814D01*
X129236686Y-73550185D01*
X129255966Y-73569465D01*
X129403446Y-73668009D01*
X129403459Y-73668016D01*
X129442305Y-73684106D01*
X129567334Y-73735894D01*
X129567336Y-73735894D01*
X129567341Y-73735896D01*
X129741304Y-73770499D01*
X129741307Y-73770500D01*
X129741309Y-73770500D01*
X129918693Y-73770500D01*
X129918694Y-73770499D01*
X129976682Y-73758964D01*
X130092658Y-73735896D01*
X130092661Y-73735894D01*
X130092666Y-73735894D01*
X130256547Y-73668013D01*
X130404035Y-73569464D01*
X130529464Y-73444035D01*
X130628013Y-73296547D01*
X130695894Y-73132666D01*
X130696751Y-73128361D01*
X130722095Y-73000944D01*
X130730500Y-72958691D01*
X130730500Y-72781309D01*
X130730500Y-72781306D01*
X130730499Y-72781304D01*
X130695896Y-72607341D01*
X130695893Y-72607332D01*
X130628016Y-72443459D01*
X130628009Y-72443446D01*
X130529464Y-72295965D01*
X130529461Y-72295961D01*
X130404038Y-72170538D01*
X130404034Y-72170535D01*
X130256553Y-72071990D01*
X130256540Y-72071983D01*
X130092667Y-72004106D01*
X130092658Y-72004103D01*
X129918694Y-71969500D01*
X129918691Y-71969500D01*
X129741309Y-71969500D01*
X129741306Y-71969500D01*
X129567341Y-72004103D01*
X129567332Y-72004106D01*
X129403459Y-72071983D01*
X129403446Y-72071990D01*
X129255966Y-72170534D01*
X129224643Y-72201857D01*
X129193318Y-72233182D01*
X129131998Y-72266666D01*
X129105639Y-72269500D01*
X126934361Y-72269500D01*
X126867322Y-72249815D01*
X126846684Y-72233185D01*
X126784035Y-72170536D01*
X126784034Y-72170535D01*
X126784033Y-72170534D01*
X126636553Y-72071990D01*
X126636540Y-72071983D01*
X126472667Y-72004106D01*
X126472658Y-72004103D01*
X126298694Y-71969500D01*
X126298691Y-71969500D01*
X126121309Y-71969500D01*
X126121306Y-71969500D01*
X125947341Y-72004103D01*
X125947332Y-72004106D01*
X125783459Y-72071983D01*
X125783446Y-72071990D01*
X125635965Y-72170535D01*
X125635961Y-72170538D01*
X125510538Y-72295961D01*
X125510535Y-72295965D01*
X125411990Y-72443446D01*
X125411983Y-72443459D01*
X125344106Y-72607332D01*
X125344103Y-72607341D01*
X125309500Y-72781304D01*
X123587930Y-72781304D01*
X127302416Y-69066819D01*
X127363739Y-69033334D01*
X127390097Y-69030500D01*
X142733332Y-69030500D01*
X142740939Y-69030500D01*
X142740943Y-69030501D01*
X142838285Y-69030501D01*
X142862474Y-69032883D01*
X142895649Y-69039482D01*
X143001306Y-69060500D01*
X143001309Y-69060500D01*
X143178693Y-69060500D01*
X143178694Y-69060499D01*
X143236682Y-69048964D01*
X143352658Y-69025896D01*
X143352661Y-69025894D01*
X143352666Y-69025894D01*
X143516547Y-68958013D01*
X143664035Y-68859464D01*
X143789464Y-68734035D01*
X143888013Y-68586547D01*
X143955894Y-68422666D01*
X143966631Y-68368691D01*
X143990499Y-68248695D01*
X143990500Y-68248693D01*
X143990500Y-68071306D01*
X143990499Y-68071304D01*
X143955896Y-67897341D01*
X143955893Y-67897332D01*
X143888016Y-67733459D01*
X143888009Y-67733446D01*
X143789464Y-67585965D01*
X143789461Y-67585961D01*
X143664038Y-67460538D01*
X143664034Y-67460535D01*
X143516553Y-67361990D01*
X143516540Y-67361983D01*
X143352667Y-67294106D01*
X143352658Y-67294103D01*
X143178694Y-67259500D01*
X143178691Y-67259500D01*
X143001309Y-67259500D01*
X143001306Y-67259500D01*
X142827341Y-67294103D01*
X142827332Y-67294106D01*
X142663459Y-67361983D01*
X142663446Y-67361990D01*
X142515965Y-67460535D01*
X142515961Y-67460538D01*
X142390538Y-67585961D01*
X142390535Y-67585965D01*
X142291986Y-67733454D01*
X142283911Y-67752951D01*
X142240070Y-67807355D01*
X142173776Y-67829421D01*
X142169349Y-67829500D01*
X132461651Y-67829500D01*
X132394612Y-67809815D01*
X132348857Y-67757011D01*
X132338913Y-67687853D01*
X132340034Y-67681308D01*
X132350500Y-67628693D01*
X132350500Y-67451306D01*
X132350499Y-67451304D01*
X132315896Y-67277341D01*
X132315893Y-67277332D01*
X132248016Y-67113459D01*
X132248009Y-67113446D01*
X132149464Y-66965965D01*
X132149461Y-66965961D01*
X132024038Y-66840538D01*
X132024034Y-66840535D01*
X131876553Y-66741990D01*
X131876540Y-66741983D01*
X131712667Y-66674106D01*
X131712658Y-66674103D01*
X131538694Y-66639500D01*
X131538691Y-66639500D01*
X131361309Y-66639500D01*
X131361306Y-66639500D01*
X131187341Y-66674103D01*
X131187332Y-66674106D01*
X131023459Y-66741983D01*
X131023446Y-66741990D01*
X130875966Y-66840534D01*
X130847810Y-66868691D01*
X130813318Y-66903182D01*
X130751998Y-66936666D01*
X130725639Y-66939500D01*
X125790941Y-66939500D01*
X125757682Y-66948411D01*
X125757683Y-66948412D01*
X125638214Y-66980423D01*
X125638209Y-66980426D01*
X125501290Y-67059475D01*
X125501282Y-67059481D01*
X125389478Y-67171286D01*
X124967584Y-67593181D01*
X124906261Y-67626666D01*
X124879903Y-67629500D01*
X123764362Y-67629500D01*
X123697323Y-67609815D01*
X123676681Y-67593181D01*
X123664038Y-67580538D01*
X123664034Y-67580535D01*
X123516553Y-67481990D01*
X123516540Y-67481983D01*
X123352667Y-67414106D01*
X123352658Y-67414103D01*
X123178694Y-67379500D01*
X123178691Y-67379500D01*
X123001309Y-67379500D01*
X123001306Y-67379500D01*
X122827341Y-67414103D01*
X122827332Y-67414106D01*
X122663459Y-67481983D01*
X122663446Y-67481990D01*
X122515965Y-67580535D01*
X122515961Y-67580538D01*
X122390538Y-67705961D01*
X122390535Y-67705965D01*
X122291990Y-67853446D01*
X122291983Y-67853459D01*
X122224106Y-68017332D01*
X122224103Y-68017341D01*
X122189500Y-68191304D01*
X122189500Y-68368695D01*
X122224103Y-68542658D01*
X122224106Y-68542667D01*
X122291983Y-68706540D01*
X122291990Y-68706553D01*
X122390535Y-68854034D01*
X122390538Y-68854038D01*
X122515961Y-68979461D01*
X122515965Y-68979464D01*
X122663446Y-69078009D01*
X122663459Y-69078016D01*
X122786363Y-69128923D01*
X122827334Y-69145894D01*
X122827336Y-69145894D01*
X122827341Y-69145896D01*
X123001304Y-69180499D01*
X123001307Y-69180500D01*
X123001309Y-69180500D01*
X123178693Y-69180500D01*
X123178694Y-69180499D01*
X123236682Y-69168964D01*
X123352658Y-69145896D01*
X123352661Y-69145894D01*
X123352666Y-69145894D01*
X123516547Y-69078013D01*
X123664035Y-68979464D01*
X123776681Y-68866817D01*
X123838002Y-68833334D01*
X123864361Y-68830500D01*
X125093331Y-68830500D01*
X125093347Y-68830501D01*
X125100943Y-68830501D01*
X125259054Y-68830501D01*
X125259057Y-68830501D01*
X125411785Y-68789577D01*
X125500746Y-68738215D01*
X125548716Y-68710520D01*
X125660520Y-68598716D01*
X125660520Y-68598714D01*
X125670724Y-68588511D01*
X125670727Y-68588506D01*
X126082416Y-68176819D01*
X126109343Y-68162115D01*
X126135162Y-68145523D01*
X126141362Y-68144631D01*
X126143739Y-68143334D01*
X126170097Y-68140500D01*
X126230903Y-68140500D01*
X126297942Y-68160185D01*
X126343697Y-68212989D01*
X126353641Y-68282147D01*
X126324616Y-68345703D01*
X126318584Y-68352181D01*
X118337584Y-76333181D01*
X118276261Y-76366666D01*
X118249903Y-76369500D01*
X116135270Y-76369500D01*
X116068231Y-76349815D01*
X116066378Y-76348601D01*
X116026552Y-76321989D01*
X116026547Y-76321987D01*
X115862667Y-76254106D01*
X115862658Y-76254103D01*
X115688694Y-76219500D01*
X115688691Y-76219500D01*
X115511309Y-76219500D01*
X115511306Y-76219500D01*
X115337341Y-76254103D01*
X115337332Y-76254106D01*
X115173459Y-76321983D01*
X115173446Y-76321990D01*
X115025965Y-76420535D01*
X115025961Y-76420538D01*
X114900538Y-76545961D01*
X114900535Y-76545965D01*
X114801990Y-76693446D01*
X114801983Y-76693459D01*
X114734106Y-76857332D01*
X114734103Y-76857341D01*
X114699500Y-77031304D01*
X93937931Y-77031304D01*
X95334735Y-75634500D01*
X96507931Y-74461304D01*
X108949500Y-74461304D01*
X108949500Y-74638695D01*
X108984103Y-74812658D01*
X108984106Y-74812667D01*
X109051983Y-74976540D01*
X109051990Y-74976553D01*
X109150535Y-75124034D01*
X109150538Y-75124038D01*
X109275961Y-75249461D01*
X109275965Y-75249464D01*
X109423446Y-75348009D01*
X109423459Y-75348016D01*
X109528313Y-75391447D01*
X109587334Y-75415894D01*
X109587336Y-75415894D01*
X109587341Y-75415896D01*
X109761304Y-75450499D01*
X109761307Y-75450500D01*
X109761309Y-75450500D01*
X109938693Y-75450500D01*
X109938694Y-75450499D01*
X110039318Y-75430484D01*
X110112658Y-75415896D01*
X110112661Y-75415894D01*
X110112666Y-75415894D01*
X110276547Y-75348013D01*
X110424035Y-75249464D01*
X110549464Y-75124035D01*
X110648013Y-74976547D01*
X110715894Y-74812666D01*
X110724121Y-74771309D01*
X110750499Y-74638695D01*
X110750500Y-74638693D01*
X110750500Y-74480096D01*
X110770185Y-74413057D01*
X110786819Y-74392415D01*
X111612416Y-73566819D01*
X111673739Y-73533334D01*
X111700097Y-73530500D01*
X118795639Y-73530500D01*
X118862678Y-73550185D01*
X118883315Y-73566814D01*
X118929682Y-73613181D01*
X118945966Y-73629465D01*
X119093446Y-73728009D01*
X119093459Y-73728016D01*
X119151339Y-73751990D01*
X119257334Y-73795894D01*
X119257336Y-73795894D01*
X119257341Y-73795896D01*
X119431304Y-73830499D01*
X119431307Y-73830500D01*
X119431309Y-73830500D01*
X119608693Y-73830500D01*
X119608694Y-73830499D01*
X119666682Y-73818964D01*
X119782658Y-73795896D01*
X119782661Y-73795894D01*
X119782666Y-73795894D01*
X119946547Y-73728013D01*
X120094035Y-73629464D01*
X120219464Y-73504035D01*
X120318013Y-73356547D01*
X120385894Y-73192666D01*
X120387540Y-73184394D01*
X120420261Y-73019894D01*
X120420500Y-73018691D01*
X120420500Y-72841309D01*
X120420500Y-72841306D01*
X120420499Y-72841304D01*
X120385896Y-72667341D01*
X120385893Y-72667332D01*
X120318016Y-72503459D01*
X120318009Y-72503446D01*
X120219464Y-72355965D01*
X120219461Y-72355961D01*
X120094038Y-72230538D01*
X120094034Y-72230535D01*
X119946553Y-72131990D01*
X119946540Y-72131983D01*
X119782667Y-72064106D01*
X119782658Y-72064103D01*
X119608694Y-72029500D01*
X119608691Y-72029500D01*
X119431309Y-72029500D01*
X119431306Y-72029500D01*
X119257341Y-72064103D01*
X119257332Y-72064106D01*
X119093459Y-72131983D01*
X119093446Y-72131990D01*
X118945966Y-72230534D01*
X118926686Y-72249815D01*
X118883318Y-72293182D01*
X118821998Y-72326666D01*
X118795639Y-72329500D01*
X111486669Y-72329500D01*
X111486653Y-72329499D01*
X111479057Y-72329499D01*
X111320943Y-72329499D01*
X111222187Y-72355961D01*
X111168210Y-72370424D01*
X111168209Y-72370425D01*
X111132808Y-72390865D01*
X111132806Y-72390866D01*
X111031290Y-72449475D01*
X111031282Y-72449481D01*
X110919478Y-72561286D01*
X109867584Y-73613181D01*
X109806261Y-73646666D01*
X109779903Y-73649500D01*
X109761306Y-73649500D01*
X109587341Y-73684103D01*
X109587332Y-73684106D01*
X109423459Y-73751983D01*
X109423446Y-73751990D01*
X109275965Y-73850535D01*
X109275961Y-73850538D01*
X109150538Y-73975961D01*
X109150535Y-73975965D01*
X109051990Y-74123446D01*
X109051983Y-74123459D01*
X108984106Y-74287332D01*
X108984103Y-74287341D01*
X108949500Y-74461304D01*
X96507931Y-74461304D01*
X105072417Y-65896819D01*
X105133740Y-65863334D01*
X105160098Y-65860500D01*
X135355639Y-65860500D01*
X135422678Y-65880185D01*
X135443315Y-65896814D01*
X135505962Y-65959461D01*
X135505966Y-65959465D01*
X135653446Y-66058009D01*
X135653459Y-66058016D01*
X135776363Y-66108923D01*
X135817334Y-66125894D01*
X135817336Y-66125894D01*
X135817341Y-66125896D01*
X135991304Y-66160499D01*
X135991307Y-66160500D01*
X135991309Y-66160500D01*
X136168693Y-66160500D01*
X136168694Y-66160499D01*
X136226682Y-66148964D01*
X136342658Y-66125896D01*
X136342661Y-66125894D01*
X136342666Y-66125894D01*
X136506547Y-66058013D01*
X136654035Y-65959464D01*
X136779464Y-65834035D01*
X136878013Y-65686547D01*
X136945894Y-65522666D01*
X136957861Y-65462507D01*
X136980499Y-65348695D01*
X136980500Y-65348693D01*
X136980500Y-65171306D01*
X136980499Y-65171304D01*
X136945896Y-64997341D01*
X136945893Y-64997332D01*
X136878016Y-64833459D01*
X136878009Y-64833446D01*
X136779464Y-64685965D01*
X136779461Y-64685961D01*
X136654038Y-64560538D01*
X136654034Y-64560535D01*
X136506553Y-64461990D01*
X136506540Y-64461983D01*
X136342667Y-64394106D01*
X136342658Y-64394103D01*
X136168694Y-64359500D01*
X136168691Y-64359500D01*
X135991309Y-64359500D01*
X135991306Y-64359500D01*
X135817341Y-64394103D01*
X135817332Y-64394106D01*
X135653459Y-64461983D01*
X135653446Y-64461990D01*
X135505966Y-64560534D01*
X135479490Y-64587011D01*
X135443318Y-64623182D01*
X135381998Y-64656666D01*
X135355639Y-64659500D01*
X105109097Y-64659500D01*
X105042058Y-64639815D01*
X104996303Y-64587011D01*
X104986359Y-64517853D01*
X105015384Y-64454297D01*
X105021416Y-64447819D01*
X107002416Y-62466819D01*
X107063739Y-62433334D01*
X107090097Y-62430500D01*
X127703331Y-62430500D01*
X127703347Y-62430501D01*
X127710943Y-62430501D01*
X127869054Y-62430501D01*
X127869057Y-62430501D01*
X128021785Y-62389577D01*
X128089468Y-62350500D01*
X128158716Y-62310520D01*
X128270520Y-62198716D01*
X128270520Y-62198714D01*
X128280724Y-62188511D01*
X128280727Y-62188506D01*
X131532416Y-58936819D01*
X131593739Y-58903334D01*
X131620097Y-58900500D01*
X134016251Y-58900500D01*
X134083290Y-58920185D01*
X134129045Y-58972989D01*
X134138989Y-59042147D01*
X134137868Y-59048691D01*
X134109500Y-59191304D01*
X134109500Y-59368695D01*
X134144103Y-59542658D01*
X134144106Y-59542667D01*
X134211983Y-59706540D01*
X134211990Y-59706553D01*
X134310535Y-59854034D01*
X134310538Y-59854038D01*
X134435961Y-59979461D01*
X134435965Y-59979464D01*
X134583446Y-60078009D01*
X134583459Y-60078016D01*
X134699078Y-60125906D01*
X134747334Y-60145894D01*
X134747336Y-60145894D01*
X134747341Y-60145896D01*
X134921304Y-60180499D01*
X134921307Y-60180500D01*
X134921309Y-60180500D01*
X135098693Y-60180500D01*
X135098694Y-60180499D01*
X135156682Y-60168964D01*
X135272658Y-60145896D01*
X135272661Y-60145894D01*
X135272666Y-60145894D01*
X135365506Y-60107439D01*
X135412958Y-60098000D01*
X139767040Y-60098000D01*
X139775216Y-60099626D01*
X139780294Y-60098710D01*
X139814492Y-60107438D01*
X139836293Y-60116468D01*
X139876522Y-60143349D01*
X145195681Y-65462507D01*
X145229166Y-65523830D01*
X145232000Y-65550188D01*
X145232000Y-75719119D01*
X145212315Y-75786158D01*
X145159511Y-75831913D01*
X145090353Y-75841857D01*
X145039109Y-75822221D01*
X144911553Y-75736990D01*
X144911540Y-75736983D01*
X144747667Y-75669106D01*
X144747658Y-75669103D01*
X144573694Y-75634500D01*
X144573691Y-75634500D01*
X144396309Y-75634500D01*
X144396306Y-75634500D01*
X144222341Y-75669103D01*
X144222332Y-75669106D01*
X144058459Y-75736983D01*
X144058446Y-75736990D01*
X143910965Y-75835535D01*
X143910961Y-75835538D01*
X143785538Y-75960961D01*
X143785535Y-75960965D01*
X143686990Y-76108446D01*
X143686983Y-76108459D01*
X143619106Y-76272332D01*
X143619103Y-76272341D01*
X143584500Y-76446304D01*
X143584500Y-76515500D01*
X143564815Y-76582539D01*
X143512011Y-76628294D01*
X143460500Y-76639500D01*
X142646670Y-76639500D01*
X142646654Y-76639499D01*
X142639058Y-76639499D01*
X142480943Y-76639499D01*
X142404579Y-76659961D01*
X142328214Y-76680423D01*
X142328209Y-76680426D01*
X142191290Y-76759475D01*
X142191282Y-76759481D01*
X142077583Y-76873181D01*
X142016260Y-76906666D01*
X141989902Y-76909500D01*
X141901306Y-76909500D01*
X141727341Y-76944103D01*
X141727332Y-76944106D01*
X141563459Y-77011983D01*
X141563446Y-77011990D01*
X141415965Y-77110535D01*
X141310548Y-77215952D01*
X141249225Y-77249436D01*
X141179533Y-77244452D01*
X141135186Y-77215951D01*
X138906819Y-74987584D01*
X138873334Y-74926261D01*
X138870500Y-74899903D01*
X138870500Y-74811306D01*
X138870499Y-74811304D01*
X138835896Y-74637341D01*
X138835893Y-74637332D01*
X138768016Y-74473459D01*
X138768009Y-74473446D01*
X138669464Y-74325965D01*
X138669461Y-74325961D01*
X138544038Y-74200538D01*
X138544034Y-74200535D01*
X138396553Y-74101990D01*
X138396540Y-74101983D01*
X138232667Y-74034106D01*
X138232658Y-74034103D01*
X138058694Y-73999500D01*
X138058691Y-73999500D01*
X137881309Y-73999500D01*
X137881306Y-73999500D01*
X137707341Y-74034103D01*
X137707332Y-74034106D01*
X137543459Y-74101983D01*
X137543446Y-74101990D01*
X137395965Y-74200535D01*
X137395961Y-74200538D01*
X137270538Y-74325961D01*
X137270535Y-74325965D01*
X137171990Y-74473446D01*
X137171983Y-74473459D01*
X137104106Y-74637332D01*
X137104103Y-74637341D01*
X137069500Y-74811304D01*
X137069500Y-74988695D01*
X137104103Y-75162658D01*
X137104106Y-75162667D01*
X137171983Y-75326540D01*
X137171990Y-75326553D01*
X137270535Y-75474034D01*
X137270538Y-75474038D01*
X137395961Y-75599461D01*
X137395965Y-75599464D01*
X137543446Y-75698009D01*
X137543459Y-75698016D01*
X137637553Y-75736990D01*
X137707334Y-75765894D01*
X137707336Y-75765894D01*
X137707341Y-75765896D01*
X137881304Y-75800499D01*
X137881307Y-75800500D01*
X137881309Y-75800500D01*
X137969903Y-75800500D01*
X138036942Y-75820185D01*
X138057584Y-75836819D01*
X140938584Y-78717819D01*
X140972069Y-78779142D01*
X140967085Y-78848834D01*
X140925213Y-78904767D01*
X140859749Y-78929184D01*
X140850903Y-78929500D01*
X139057639Y-78929500D01*
X138990600Y-78909815D01*
X138952075Y-78868065D01*
X138951398Y-78868518D01*
X138948523Y-78864215D01*
X138948279Y-78863951D01*
X138948009Y-78863446D01*
X138849464Y-78715965D01*
X138849461Y-78715961D01*
X138724038Y-78590538D01*
X138724034Y-78590535D01*
X138576553Y-78491990D01*
X138576540Y-78491983D01*
X138412667Y-78424106D01*
X138412658Y-78424103D01*
X138238694Y-78389500D01*
X138238691Y-78389500D01*
X138061309Y-78389500D01*
X138061306Y-78389500D01*
X137887341Y-78424103D01*
X137887332Y-78424106D01*
X137723459Y-78491983D01*
X137723446Y-78491990D01*
X137575965Y-78590535D01*
X137575961Y-78590538D01*
X137450538Y-78715961D01*
X137450535Y-78715965D01*
X137351990Y-78863446D01*
X137351983Y-78863459D01*
X137284106Y-79027332D01*
X137284103Y-79027341D01*
X137249500Y-79201304D01*
X137249500Y-79378695D01*
X137284103Y-79552658D01*
X137284106Y-79552667D01*
X137351983Y-79716540D01*
X137351990Y-79716553D01*
X137450535Y-79864034D01*
X137450538Y-79864038D01*
X137463819Y-79877319D01*
X137497304Y-79938642D01*
X137492320Y-80008334D01*
X137463819Y-80052681D01*
X137450538Y-80065961D01*
X137450535Y-80065965D01*
X137351990Y-80213446D01*
X137351983Y-80213459D01*
X137284106Y-80377332D01*
X137284103Y-80377341D01*
X137249500Y-80551304D01*
X137249500Y-80728695D01*
X137284103Y-80902658D01*
X137284106Y-80902667D01*
X137351983Y-81066540D01*
X137351990Y-81066553D01*
X137450535Y-81214034D01*
X137450538Y-81214038D01*
X137575961Y-81339461D01*
X137575965Y-81339464D01*
X137723446Y-81438009D01*
X137723459Y-81438016D01*
X137843342Y-81487672D01*
X137887334Y-81505894D01*
X137887336Y-81505894D01*
X137887341Y-81505896D01*
X138061304Y-81540499D01*
X138061307Y-81540500D01*
X138061309Y-81540500D01*
X138238693Y-81540500D01*
X138238694Y-81540499D01*
X138296682Y-81528964D01*
X138412658Y-81505896D01*
X138412661Y-81505894D01*
X138412666Y-81505894D01*
X138576547Y-81438013D01*
X138724035Y-81339464D01*
X138849464Y-81214035D01*
X138901867Y-81135608D01*
X138955479Y-81090804D01*
X139004969Y-81080500D01*
X142925639Y-81080500D01*
X142992678Y-81100185D01*
X143013315Y-81116814D01*
X143048086Y-81151585D01*
X143075966Y-81179465D01*
X143223446Y-81278009D01*
X143223459Y-81278016D01*
X143290525Y-81305795D01*
X143387334Y-81345894D01*
X143387336Y-81345894D01*
X143387341Y-81345896D01*
X143561304Y-81380499D01*
X143561307Y-81380500D01*
X143561309Y-81380500D01*
X143738692Y-81380500D01*
X143754990Y-81377257D01*
X143811309Y-81366055D01*
X143832291Y-81367932D01*
X143853147Y-81364934D01*
X143866395Y-81370984D01*
X143880899Y-81372282D01*
X143897536Y-81385206D01*
X143916703Y-81393959D01*
X143924576Y-81406210D01*
X143936077Y-81415144D01*
X143943086Y-81435013D01*
X143954477Y-81452737D01*
X143958011Y-81477317D01*
X143959322Y-81481033D01*
X143959500Y-81487672D01*
X143959500Y-81589902D01*
X143939815Y-81656941D01*
X143923181Y-81677583D01*
X141457584Y-84143181D01*
X141396261Y-84176666D01*
X141369903Y-84179500D01*
X138954361Y-84179500D01*
X138887322Y-84159815D01*
X138866679Y-84143180D01*
X138819038Y-84095538D01*
X138819034Y-84095535D01*
X138671553Y-83996990D01*
X138671540Y-83996983D01*
X138507667Y-83929106D01*
X138507658Y-83929103D01*
X138333694Y-83894500D01*
X138333691Y-83894500D01*
X138156309Y-83894500D01*
X138156306Y-83894500D01*
X137982341Y-83929103D01*
X137982332Y-83929106D01*
X137818459Y-83996983D01*
X137818446Y-83996990D01*
X137670965Y-84095535D01*
X137670961Y-84095538D01*
X137545538Y-84220961D01*
X137545535Y-84220965D01*
X137446990Y-84368446D01*
X137446983Y-84368459D01*
X137379106Y-84532332D01*
X137379103Y-84532341D01*
X137344500Y-84706304D01*
X137344500Y-84883695D01*
X137379103Y-85057658D01*
X137379106Y-85057667D01*
X137446983Y-85221540D01*
X137446990Y-85221553D01*
X137545535Y-85369034D01*
X137545538Y-85369038D01*
X137670961Y-85494461D01*
X137670965Y-85494464D01*
X137818446Y-85593009D01*
X137818459Y-85593016D01*
X137941363Y-85643923D01*
X137982334Y-85660894D01*
X137982336Y-85660894D01*
X137982341Y-85660896D01*
X138156304Y-85695499D01*
X138156307Y-85695500D01*
X138156309Y-85695500D01*
X138333693Y-85695500D01*
X138333694Y-85695499D01*
X138391682Y-85683964D01*
X138507658Y-85660896D01*
X138507661Y-85660894D01*
X138507666Y-85660894D01*
X138671547Y-85593013D01*
X138819035Y-85494464D01*
X138896681Y-85416817D01*
X138958002Y-85383334D01*
X138984361Y-85380500D01*
X141583331Y-85380500D01*
X141583347Y-85380501D01*
X141590943Y-85380501D01*
X141749054Y-85380501D01*
X141749057Y-85380501D01*
X141901785Y-85339577D01*
X141969856Y-85300276D01*
X142038716Y-85260520D01*
X142150520Y-85148716D01*
X142150520Y-85148714D01*
X142160724Y-85138511D01*
X142160727Y-85138506D01*
X144832416Y-82466819D01*
X144893739Y-82433334D01*
X144920097Y-82430500D01*
X144948693Y-82430500D01*
X144948694Y-82430499D01*
X145006682Y-82418964D01*
X145122658Y-82395896D01*
X145122661Y-82395894D01*
X145122666Y-82395894D01*
X145286547Y-82328013D01*
X145434035Y-82229464D01*
X145559464Y-82104035D01*
X145658013Y-81956547D01*
X145725894Y-81792666D01*
X145729153Y-81776286D01*
X145748964Y-81676682D01*
X145760500Y-81618691D01*
X145760500Y-81441309D01*
X145760500Y-81441306D01*
X145747387Y-81375386D01*
X145753614Y-81305795D01*
X145796476Y-81250617D01*
X145862366Y-81227372D01*
X145930363Y-81243439D01*
X145956685Y-81263513D01*
X148295681Y-83602508D01*
X148329166Y-83663831D01*
X148332000Y-83690189D01*
X148332000Y-93387042D01*
X148322561Y-93434494D01*
X148284106Y-93527332D01*
X148284103Y-93527341D01*
X148249500Y-93701304D01*
X148249500Y-93878695D01*
X148284103Y-94052658D01*
X148284106Y-94052667D01*
X148351983Y-94216540D01*
X148351990Y-94216553D01*
X148450535Y-94364034D01*
X148450538Y-94364038D01*
X148575961Y-94489461D01*
X148575965Y-94489464D01*
X148723446Y-94588009D01*
X148723459Y-94588016D01*
X148846363Y-94638923D01*
X148887334Y-94655894D01*
X148887336Y-94655894D01*
X148887341Y-94655896D01*
X149061304Y-94690499D01*
X149061307Y-94690500D01*
X149061309Y-94690500D01*
X149238693Y-94690500D01*
X149238694Y-94690499D01*
X149296682Y-94678964D01*
X149412658Y-94655896D01*
X149412661Y-94655894D01*
X149412666Y-94655894D01*
X149576547Y-94588013D01*
X149724035Y-94489464D01*
X149849464Y-94364035D01*
X149948013Y-94216547D01*
X150015894Y-94052666D01*
X150050500Y-93878691D01*
X150050500Y-93701309D01*
X150050500Y-93701306D01*
X150050499Y-93701304D01*
X150015896Y-93527341D01*
X150015893Y-93527332D01*
X149977439Y-93434494D01*
X149968000Y-93387042D01*
X149968000Y-83219433D01*
X149967999Y-83219429D01*
X149936566Y-83061405D01*
X149936565Y-83061398D01*
X149894357Y-82959500D01*
X149874903Y-82912532D01*
X149785382Y-82778555D01*
X149785379Y-82778551D01*
X146904319Y-79897491D01*
X146870834Y-79836168D01*
X146868000Y-79809810D01*
X146868000Y-75237308D01*
X146887685Y-75170269D01*
X146940489Y-75124514D01*
X147009647Y-75114570D01*
X147073203Y-75143595D01*
X147079681Y-75149627D01*
X151793181Y-79863127D01*
X151826666Y-79924450D01*
X151829500Y-79950808D01*
X151829500Y-85805638D01*
X151809815Y-85872677D01*
X151793181Y-85893319D01*
X151780538Y-85905961D01*
X151780535Y-85905965D01*
X151681990Y-86053446D01*
X151681983Y-86053459D01*
X151614106Y-86217332D01*
X151614103Y-86217341D01*
X151579500Y-86391304D01*
X151579500Y-86568695D01*
X151614103Y-86742658D01*
X151614106Y-86742667D01*
X151681983Y-86906540D01*
X151681990Y-86906553D01*
X151780535Y-87054034D01*
X151780538Y-87054038D01*
X151905961Y-87179461D01*
X151905965Y-87179464D01*
X152053446Y-87278009D01*
X152053459Y-87278016D01*
X152176363Y-87328923D01*
X152217334Y-87345894D01*
X152217336Y-87345894D01*
X152217341Y-87345896D01*
X152391304Y-87380499D01*
X152391307Y-87380500D01*
X152391309Y-87380500D01*
X152568693Y-87380500D01*
X152568694Y-87380499D01*
X152626682Y-87368964D01*
X152742658Y-87345896D01*
X152742661Y-87345894D01*
X152742666Y-87345894D01*
X152906547Y-87278013D01*
X153054035Y-87179464D01*
X153179464Y-87054035D01*
X153278013Y-86906547D01*
X153345894Y-86742666D01*
X153380500Y-86568691D01*
X153380500Y-86391309D01*
X153380500Y-86391306D01*
X153380499Y-86391304D01*
X153345896Y-86217341D01*
X153345893Y-86217332D01*
X153278016Y-86053459D01*
X153278009Y-86053446D01*
X153179464Y-85905965D01*
X153179461Y-85905961D01*
X153166819Y-85893319D01*
X153133334Y-85831996D01*
X153130500Y-85805638D01*
X153130500Y-79565928D01*
X153105502Y-79440261D01*
X153105501Y-79440260D01*
X153105501Y-79440256D01*
X153056465Y-79321873D01*
X153056463Y-79321870D01*
X153040657Y-79298214D01*
X153040656Y-79298214D01*
X152985277Y-79215331D01*
X148026819Y-74256873D01*
X147993334Y-74195550D01*
X147990500Y-74169192D01*
X147990500Y-73613704D01*
X149809500Y-73613704D01*
X149809500Y-73791095D01*
X149844103Y-73965058D01*
X149844106Y-73965067D01*
X149911983Y-74128940D01*
X149911990Y-74128953D01*
X150010535Y-74276434D01*
X150010538Y-74276438D01*
X150135961Y-74401861D01*
X150135965Y-74401864D01*
X150283446Y-74500409D01*
X150283459Y-74500416D01*
X150406363Y-74551323D01*
X150447334Y-74568294D01*
X150447336Y-74568294D01*
X150447341Y-74568296D01*
X150621304Y-74602899D01*
X150621307Y-74602900D01*
X150750049Y-74602900D01*
X150817088Y-74622585D01*
X150837730Y-74639219D01*
X154563181Y-78364670D01*
X154596666Y-78425993D01*
X154599500Y-78452351D01*
X154599500Y-96804961D01*
X154579815Y-96872000D01*
X154527011Y-96917755D01*
X154522955Y-96919521D01*
X154486243Y-96934728D01*
X154486242Y-96934728D01*
X154338752Y-97033278D01*
X154338748Y-97033281D01*
X154213325Y-97158704D01*
X154213322Y-97158708D01*
X154114777Y-97306189D01*
X154114770Y-97306202D01*
X154046893Y-97470075D01*
X154046890Y-97470084D01*
X154012287Y-97644047D01*
X154012287Y-97821438D01*
X154046890Y-97995401D01*
X154046893Y-97995410D01*
X154114770Y-98159283D01*
X154114777Y-98159296D01*
X154213322Y-98306777D01*
X154213325Y-98306781D01*
X154338748Y-98432204D01*
X154338752Y-98432207D01*
X154486233Y-98530752D01*
X154486246Y-98530759D01*
X154609150Y-98581666D01*
X154650121Y-98598637D01*
X154650123Y-98598637D01*
X154650128Y-98598639D01*
X154824091Y-98633242D01*
X154824094Y-98633243D01*
X154824096Y-98633243D01*
X154853827Y-98633243D01*
X154920866Y-98652928D01*
X154957266Y-98692374D01*
X154958602Y-98691482D01*
X155060535Y-98844034D01*
X155060538Y-98844038D01*
X155185961Y-98969461D01*
X155185965Y-98969464D01*
X155333446Y-99068009D01*
X155333459Y-99068016D01*
X155456363Y-99118923D01*
X155497334Y-99135894D01*
X155497336Y-99135894D01*
X155497341Y-99135896D01*
X155671304Y-99170499D01*
X155671307Y-99170500D01*
X155671309Y-99170500D01*
X155848693Y-99170500D01*
X155848694Y-99170499D01*
X155906682Y-99158964D01*
X156022658Y-99135896D01*
X156022661Y-99135894D01*
X156022666Y-99135894D01*
X156186547Y-99068013D01*
X156334035Y-98969464D01*
X156459464Y-98844035D01*
X156558013Y-98696547D01*
X156559742Y-98692374D01*
X156584234Y-98633243D01*
X156625894Y-98532666D01*
X156646056Y-98431303D01*
X156678439Y-98369397D01*
X156679926Y-98367882D01*
X156778129Y-98269680D01*
X156856892Y-98151804D01*
X156911144Y-98020827D01*
X156920689Y-97972842D01*
X156938802Y-97881782D01*
X156938802Y-96838218D01*
X156911145Y-96699173D01*
X156872782Y-96606558D01*
X156856892Y-96568196D01*
X156778129Y-96450320D01*
X156778126Y-96450316D01*
X156717819Y-96390009D01*
X156684334Y-96328686D01*
X156681500Y-96302328D01*
X156681500Y-77765822D01*
X156679413Y-77755332D01*
X156679413Y-77755328D01*
X156653844Y-77626784D01*
X156653843Y-77626777D01*
X156601914Y-77501412D01*
X156600271Y-77496820D01*
X156599590Y-77495800D01*
X156520827Y-77377924D01*
X156420582Y-77277679D01*
X152614675Y-73471772D01*
X152599971Y-73444844D01*
X152583379Y-73419026D01*
X152582487Y-73412825D01*
X152581190Y-73410449D01*
X152578356Y-73384091D01*
X152578356Y-73142499D01*
X152580739Y-73118307D01*
X152610500Y-72968693D01*
X152610500Y-72791306D01*
X152610499Y-72791304D01*
X152575896Y-72617341D01*
X152575893Y-72617332D01*
X152508016Y-72453459D01*
X152508009Y-72453446D01*
X152409464Y-72305965D01*
X152409461Y-72305961D01*
X152284038Y-72180538D01*
X152284034Y-72180535D01*
X152136553Y-72081990D01*
X152136540Y-72081983D01*
X151972667Y-72014106D01*
X151972658Y-72014103D01*
X151798694Y-71979500D01*
X151798691Y-71979500D01*
X151621309Y-71979500D01*
X151621306Y-71979500D01*
X151447341Y-72014103D01*
X151447332Y-72014106D01*
X151283459Y-72081983D01*
X151283446Y-72081990D01*
X151135965Y-72180535D01*
X151135961Y-72180538D01*
X151010538Y-72305961D01*
X151010535Y-72305965D01*
X150911990Y-72453446D01*
X150911983Y-72453459D01*
X150844106Y-72617332D01*
X150844104Y-72617340D01*
X150827246Y-72702092D01*
X150794861Y-72764003D01*
X150734145Y-72798577D01*
X150705629Y-72801900D01*
X150621306Y-72801900D01*
X150447341Y-72836503D01*
X150447332Y-72836506D01*
X150283459Y-72904383D01*
X150283446Y-72904390D01*
X150135965Y-73002935D01*
X150135961Y-73002938D01*
X150010538Y-73128361D01*
X150010535Y-73128365D01*
X149911990Y-73275846D01*
X149911983Y-73275859D01*
X149844106Y-73439732D01*
X149844103Y-73439741D01*
X149809500Y-73613704D01*
X147990500Y-73613704D01*
X147990500Y-66691304D01*
X162789500Y-66691304D01*
X162789500Y-66868695D01*
X162824103Y-67042658D01*
X162824106Y-67042667D01*
X162891983Y-67206540D01*
X162891990Y-67206553D01*
X162990534Y-67354033D01*
X162990535Y-67354034D01*
X162990536Y-67354035D01*
X163053182Y-67416681D01*
X163086666Y-67478002D01*
X163089500Y-67504361D01*
X163089500Y-68883330D01*
X163089499Y-68883348D01*
X163089499Y-69049054D01*
X163089498Y-69049054D01*
X163130423Y-69201785D01*
X163159358Y-69251900D01*
X163159359Y-69251904D01*
X163159360Y-69251904D01*
X163209479Y-69338714D01*
X163209481Y-69338717D01*
X163328349Y-69457585D01*
X163328355Y-69457590D01*
X167163181Y-73292416D01*
X167196666Y-73353739D01*
X167199500Y-73380097D01*
X167199500Y-74095638D01*
X167179815Y-74162677D01*
X167163181Y-74183319D01*
X167060538Y-74285961D01*
X167060535Y-74285965D01*
X166961990Y-74433446D01*
X166961983Y-74433459D01*
X166894106Y-74597332D01*
X166894103Y-74597341D01*
X166859500Y-74771304D01*
X166859500Y-74948695D01*
X166894103Y-75122658D01*
X166894106Y-75122667D01*
X166961983Y-75286540D01*
X166961990Y-75286553D01*
X167060535Y-75434034D01*
X167060538Y-75434038D01*
X167185961Y-75559461D01*
X167185965Y-75559464D01*
X167333446Y-75658009D01*
X167333459Y-75658016D01*
X167430030Y-75698016D01*
X167497334Y-75725894D01*
X167497336Y-75725894D01*
X167497341Y-75725896D01*
X167671304Y-75760499D01*
X167671307Y-75760500D01*
X167671309Y-75760500D01*
X167848693Y-75760500D01*
X167848694Y-75760499D01*
X167906682Y-75748964D01*
X168022658Y-75725896D01*
X168022661Y-75725894D01*
X168022666Y-75725894D01*
X168186547Y-75658013D01*
X168334035Y-75559464D01*
X168459464Y-75434035D01*
X168558013Y-75286547D01*
X168601070Y-75182595D01*
X168615034Y-75165266D01*
X168625038Y-75145379D01*
X168636533Y-75138588D01*
X168644909Y-75128195D01*
X168666028Y-75121165D01*
X168685196Y-75109843D01*
X168698536Y-75110345D01*
X168711203Y-75106129D01*
X168732771Y-75111633D01*
X168755016Y-75112471D01*
X168773627Y-75122060D01*
X168778902Y-75123407D01*
X168786547Y-75128331D01*
X168787542Y-75129025D01*
X168892184Y-75205051D01*
X168908555Y-75213392D01*
X168915567Y-75218281D01*
X168932302Y-75239130D01*
X168951742Y-75257491D01*
X168953840Y-75265964D01*
X168959302Y-75272769D01*
X168962108Y-75299355D01*
X168968536Y-75325312D01*
X168965720Y-75333572D01*
X168966637Y-75342252D01*
X168954622Y-75366138D01*
X168945998Y-75391447D01*
X168938722Y-75397751D01*
X168935242Y-75404671D01*
X168921085Y-75413033D01*
X168900946Y-75430484D01*
X168892182Y-75434949D01*
X168720213Y-75559890D01*
X168569890Y-75710213D01*
X168444951Y-75882179D01*
X168348444Y-76071585D01*
X168282753Y-76273760D01*
X168249500Y-76483713D01*
X168249500Y-76696286D01*
X168275008Y-76857341D01*
X168282754Y-76906243D01*
X168317113Y-77011990D01*
X168348444Y-77108414D01*
X168444951Y-77297820D01*
X168569890Y-77469786D01*
X168720213Y-77620109D01*
X168892182Y-77745050D01*
X168900946Y-77749516D01*
X168951742Y-77797491D01*
X168968536Y-77865312D01*
X168945998Y-77931447D01*
X168900946Y-77970484D01*
X168892182Y-77974949D01*
X168720213Y-78099890D01*
X168569890Y-78250213D01*
X168444951Y-78422179D01*
X168348444Y-78611585D01*
X168282753Y-78813760D01*
X168249500Y-79023713D01*
X168249500Y-79236286D01*
X168281806Y-79440261D01*
X168282754Y-79446243D01*
X168342286Y-79629464D01*
X168348444Y-79648414D01*
X168444951Y-79837820D01*
X168569890Y-80009786D01*
X168720213Y-80160109D01*
X168892182Y-80285050D01*
X168900946Y-80289516D01*
X168951742Y-80337491D01*
X168968536Y-80405312D01*
X168945998Y-80471447D01*
X168900946Y-80510484D01*
X168892182Y-80514949D01*
X168720213Y-80639890D01*
X168569890Y-80790213D01*
X168444951Y-80962179D01*
X168348444Y-81151585D01*
X168348443Y-81151587D01*
X168348443Y-81151588D01*
X168339385Y-81179465D01*
X168282753Y-81353760D01*
X168249500Y-81563713D01*
X168249500Y-81776286D01*
X168282753Y-81986239D01*
X168348444Y-82188414D01*
X168444951Y-82377820D01*
X168569890Y-82549786D01*
X168720213Y-82700109D01*
X168892179Y-82825048D01*
X168892181Y-82825049D01*
X168892184Y-82825051D01*
X169081588Y-82921557D01*
X169283757Y-82987246D01*
X169493713Y-83020500D01*
X169493714Y-83020500D01*
X169706286Y-83020500D01*
X169706287Y-83020500D01*
X169916243Y-82987246D01*
X170118412Y-82921557D01*
X170307816Y-82825051D01*
X170371818Y-82778551D01*
X170479786Y-82700109D01*
X170479788Y-82700106D01*
X170479792Y-82700104D01*
X170630104Y-82549792D01*
X170630106Y-82549788D01*
X170630109Y-82549786D01*
X170755048Y-82377820D01*
X170755047Y-82377820D01*
X170755051Y-82377816D01*
X170851557Y-82188412D01*
X170917246Y-81986243D01*
X170950500Y-81776287D01*
X170950500Y-81563713D01*
X170917246Y-81353757D01*
X170851557Y-81151588D01*
X170755051Y-80962184D01*
X170755049Y-80962181D01*
X170755048Y-80962179D01*
X170630109Y-80790213D01*
X170479786Y-80639890D01*
X170307820Y-80514951D01*
X170307115Y-80514591D01*
X170299054Y-80510485D01*
X170248259Y-80462512D01*
X170231463Y-80394692D01*
X170253999Y-80328556D01*
X170299054Y-80289515D01*
X170307816Y-80285051D01*
X170384916Y-80229035D01*
X170479786Y-80160109D01*
X170479788Y-80160106D01*
X170479792Y-80160104D01*
X170630104Y-80009792D01*
X170630106Y-80009788D01*
X170630109Y-80009786D01*
X170755048Y-79837820D01*
X170755047Y-79837820D01*
X170755051Y-79837816D01*
X170851557Y-79648412D01*
X170917246Y-79446243D01*
X170950500Y-79236287D01*
X170950500Y-79023713D01*
X170917246Y-78813757D01*
X170851557Y-78611588D01*
X170755051Y-78422184D01*
X170755049Y-78422181D01*
X170755048Y-78422179D01*
X170630109Y-78250213D01*
X170479786Y-78099890D01*
X170307820Y-77974951D01*
X170307115Y-77974591D01*
X170299054Y-77970485D01*
X170248259Y-77922512D01*
X170231463Y-77854692D01*
X170253999Y-77788556D01*
X170299054Y-77749515D01*
X170307816Y-77745051D01*
X170378034Y-77694035D01*
X170479786Y-77620109D01*
X170479788Y-77620106D01*
X170479792Y-77620104D01*
X170630104Y-77469792D01*
X170630106Y-77469788D01*
X170630109Y-77469786D01*
X170755048Y-77297820D01*
X170755047Y-77297820D01*
X170755051Y-77297816D01*
X170851557Y-77108412D01*
X170917246Y-76906243D01*
X170950500Y-76696287D01*
X170950500Y-76483713D01*
X170917246Y-76273757D01*
X170851557Y-76071588D01*
X170755051Y-75882184D01*
X170755049Y-75882181D01*
X170755048Y-75882179D01*
X170630109Y-75710213D01*
X170479786Y-75559890D01*
X170307820Y-75434951D01*
X170306020Y-75434034D01*
X170299054Y-75430485D01*
X170248259Y-75382512D01*
X170231463Y-75314692D01*
X170253999Y-75248556D01*
X170299054Y-75209515D01*
X170307816Y-75205051D01*
X170366153Y-75162667D01*
X170479786Y-75080109D01*
X170479788Y-75080106D01*
X170479792Y-75080104D01*
X170630104Y-74929792D01*
X170630106Y-74929788D01*
X170630109Y-74929786D01*
X170755048Y-74757820D01*
X170755047Y-74757820D01*
X170755051Y-74757816D01*
X170851557Y-74568412D01*
X170917246Y-74366243D01*
X170950500Y-74156287D01*
X170950500Y-73943713D01*
X170917246Y-73733757D01*
X170851557Y-73531588D01*
X170755051Y-73342184D01*
X170755049Y-73342181D01*
X170755048Y-73342179D01*
X170630109Y-73170213D01*
X170479786Y-73019890D01*
X170307820Y-72894951D01*
X170307115Y-72894591D01*
X170299054Y-72890485D01*
X170248259Y-72842512D01*
X170231463Y-72774692D01*
X170253999Y-72708556D01*
X170299054Y-72669515D01*
X170307816Y-72665051D01*
X170373485Y-72617340D01*
X170479786Y-72540109D01*
X170479788Y-72540106D01*
X170479792Y-72540104D01*
X170630104Y-72389792D01*
X170630106Y-72389788D01*
X170630109Y-72389786D01*
X170755048Y-72217820D01*
X170755047Y-72217820D01*
X170755051Y-72217816D01*
X170851557Y-72028412D01*
X170917246Y-71826243D01*
X170950500Y-71616287D01*
X170950500Y-71403713D01*
X170917246Y-71193757D01*
X170851557Y-70991588D01*
X170755051Y-70802184D01*
X170755049Y-70802181D01*
X170755048Y-70802179D01*
X170630109Y-70630213D01*
X170479786Y-70479890D01*
X170307820Y-70354951D01*
X170307115Y-70354591D01*
X170299054Y-70350485D01*
X170248259Y-70302512D01*
X170231463Y-70234692D01*
X170253999Y-70168556D01*
X170299054Y-70129515D01*
X170307816Y-70125051D01*
X170363776Y-70084394D01*
X170479786Y-70000109D01*
X170479788Y-70000106D01*
X170479792Y-70000104D01*
X170630104Y-69849792D01*
X170630106Y-69849788D01*
X170630109Y-69849786D01*
X170755048Y-69677820D01*
X170755047Y-69677820D01*
X170755051Y-69677816D01*
X170851557Y-69488412D01*
X170917246Y-69286243D01*
X170950500Y-69076287D01*
X170950500Y-68863713D01*
X170917246Y-68653757D01*
X170851557Y-68451588D01*
X170755051Y-68262184D01*
X170755049Y-68262181D01*
X170755048Y-68262179D01*
X170630109Y-68090213D01*
X170479786Y-67939890D01*
X170307820Y-67814951D01*
X170307115Y-67814591D01*
X170299054Y-67810485D01*
X170248259Y-67762512D01*
X170231463Y-67694692D01*
X170253999Y-67628556D01*
X170299054Y-67589515D01*
X170307816Y-67585051D01*
X170329789Y-67569086D01*
X170479786Y-67460109D01*
X170479788Y-67460106D01*
X170479792Y-67460104D01*
X170630104Y-67309792D01*
X170630106Y-67309788D01*
X170630109Y-67309786D01*
X170755048Y-67137820D01*
X170755047Y-67137820D01*
X170755051Y-67137816D01*
X170851557Y-66948412D01*
X170917246Y-66746243D01*
X170950500Y-66536287D01*
X170950500Y-66323713D01*
X170917246Y-66113757D01*
X170851557Y-65911588D01*
X170755051Y-65722184D01*
X170755049Y-65722181D01*
X170755048Y-65722179D01*
X170630109Y-65550213D01*
X170479786Y-65399890D01*
X170307820Y-65274951D01*
X170307115Y-65274591D01*
X170299054Y-65270485D01*
X170248259Y-65222512D01*
X170231463Y-65154692D01*
X170253999Y-65088556D01*
X170299054Y-65049515D01*
X170307816Y-65045051D01*
X170373484Y-64997341D01*
X170479786Y-64920109D01*
X170479788Y-64920106D01*
X170479792Y-64920104D01*
X170630104Y-64769792D01*
X170630106Y-64769788D01*
X170630109Y-64769786D01*
X170755048Y-64597820D01*
X170755047Y-64597820D01*
X170755051Y-64597816D01*
X170851557Y-64408412D01*
X170917246Y-64206243D01*
X170950500Y-63996287D01*
X170950500Y-63783713D01*
X170917246Y-63573757D01*
X170851557Y-63371588D01*
X170755051Y-63182184D01*
X170755049Y-63182181D01*
X170755048Y-63182179D01*
X170630109Y-63010213D01*
X170479786Y-62859890D01*
X170307820Y-62734951D01*
X170307115Y-62734591D01*
X170299054Y-62730485D01*
X170248259Y-62682512D01*
X170231463Y-62614692D01*
X170253999Y-62548556D01*
X170299054Y-62509515D01*
X170307816Y-62505051D01*
X170363731Y-62464427D01*
X170479786Y-62380109D01*
X170479788Y-62380106D01*
X170479792Y-62380104D01*
X170630104Y-62229792D01*
X170630106Y-62229788D01*
X170630109Y-62229786D01*
X170755048Y-62057820D01*
X170755047Y-62057820D01*
X170755051Y-62057816D01*
X170851557Y-61868412D01*
X170917246Y-61666243D01*
X170950500Y-61456287D01*
X170950500Y-61243713D01*
X170917246Y-61033757D01*
X170851557Y-60831588D01*
X170755051Y-60642184D01*
X170755049Y-60642181D01*
X170755048Y-60642179D01*
X170630109Y-60470213D01*
X170516181Y-60356285D01*
X170482696Y-60294962D01*
X170487680Y-60225270D01*
X170529552Y-60169337D01*
X170560529Y-60152422D01*
X170692086Y-60103354D01*
X170692093Y-60103350D01*
X170807187Y-60017190D01*
X170807190Y-60017187D01*
X170893350Y-59902093D01*
X170893354Y-59902086D01*
X170943596Y-59767379D01*
X170943598Y-59767372D01*
X170949999Y-59707844D01*
X170950000Y-59707827D01*
X170950000Y-59060000D01*
X170033012Y-59060000D01*
X170065925Y-59002993D01*
X170100000Y-58875826D01*
X170100000Y-58744174D01*
X170065925Y-58617007D01*
X170033012Y-58560000D01*
X170950000Y-58560000D01*
X170950000Y-57912172D01*
X170949999Y-57912155D01*
X170943598Y-57852627D01*
X170943596Y-57852620D01*
X170893354Y-57717913D01*
X170893350Y-57717906D01*
X170807190Y-57602812D01*
X170807187Y-57602809D01*
X170692093Y-57516649D01*
X170692086Y-57516645D01*
X170557379Y-57466403D01*
X170557372Y-57466401D01*
X170497844Y-57460000D01*
X169850000Y-57460000D01*
X169850000Y-58376988D01*
X169792993Y-58344075D01*
X169665826Y-58310000D01*
X169534174Y-58310000D01*
X169407007Y-58344075D01*
X169350000Y-58376988D01*
X169350000Y-57460000D01*
X168702155Y-57460000D01*
X168642627Y-57466401D01*
X168642620Y-57466403D01*
X168507913Y-57516645D01*
X168507906Y-57516649D01*
X168392812Y-57602809D01*
X168392809Y-57602812D01*
X168306649Y-57717906D01*
X168306645Y-57717913D01*
X168256403Y-57852620D01*
X168256401Y-57852627D01*
X168250000Y-57912155D01*
X168250000Y-58560000D01*
X169166988Y-58560000D01*
X169134075Y-58617007D01*
X169100000Y-58744174D01*
X169100000Y-58875826D01*
X169134075Y-59002993D01*
X169166988Y-59060000D01*
X168250000Y-59060000D01*
X168250000Y-59707844D01*
X168256401Y-59767372D01*
X168256403Y-59767379D01*
X168306645Y-59902086D01*
X168306649Y-59902093D01*
X168392809Y-60017187D01*
X168392812Y-60017190D01*
X168507906Y-60103350D01*
X168507913Y-60103354D01*
X168639470Y-60152422D01*
X168695404Y-60194293D01*
X168719821Y-60259758D01*
X168704969Y-60328031D01*
X168683819Y-60356285D01*
X168569889Y-60470215D01*
X168444951Y-60642179D01*
X168348444Y-60831585D01*
X168282753Y-61033760D01*
X168266296Y-61137666D01*
X168249500Y-61243713D01*
X168249500Y-61456287D01*
X168250292Y-61461286D01*
X168270885Y-61591309D01*
X168282754Y-61666243D01*
X168341262Y-61846312D01*
X168348444Y-61868414D01*
X168444951Y-62057820D01*
X168569890Y-62229786D01*
X168720213Y-62380109D01*
X168892182Y-62505050D01*
X168900946Y-62509516D01*
X168951742Y-62557491D01*
X168968536Y-62625312D01*
X168945998Y-62691447D01*
X168900946Y-62730484D01*
X168892182Y-62734949D01*
X168720213Y-62859890D01*
X168569890Y-63010213D01*
X168444951Y-63182179D01*
X168348444Y-63371585D01*
X168282753Y-63573760D01*
X168252960Y-63761870D01*
X168249500Y-63783713D01*
X168249500Y-63996287D01*
X168282754Y-64206243D01*
X168332550Y-64359500D01*
X168348444Y-64408414D01*
X168444951Y-64597820D01*
X168569890Y-64769786D01*
X168720213Y-64920109D01*
X168892182Y-65045050D01*
X168900946Y-65049516D01*
X168951742Y-65097491D01*
X168968536Y-65165312D01*
X168945998Y-65231447D01*
X168900946Y-65270484D01*
X168892182Y-65274949D01*
X168720213Y-65399890D01*
X168569890Y-65550213D01*
X168444951Y-65722179D01*
X168348444Y-65911585D01*
X168282753Y-66113760D01*
X168249500Y-66323713D01*
X168249500Y-66536287D01*
X168251210Y-66547085D01*
X168271328Y-66674106D01*
X168282754Y-66746243D01*
X168344626Y-66936666D01*
X168348443Y-66948412D01*
X168444951Y-67137820D01*
X168569890Y-67309786D01*
X168720213Y-67460109D01*
X168892182Y-67585050D01*
X168900946Y-67589516D01*
X168951742Y-67637491D01*
X168968536Y-67705312D01*
X168945998Y-67771447D01*
X168900946Y-67810484D01*
X168892182Y-67814949D01*
X168720213Y-67939890D01*
X168569890Y-68090213D01*
X168444951Y-68262179D01*
X168348444Y-68451585D01*
X168348443Y-68451587D01*
X168348443Y-68451588D01*
X168315598Y-68552672D01*
X168282753Y-68653760D01*
X168269377Y-68738215D01*
X168249500Y-68863713D01*
X168249500Y-69076287D01*
X168249774Y-69078016D01*
X168277314Y-69251900D01*
X168282754Y-69286243D01*
X168338428Y-69457590D01*
X168348444Y-69488414D01*
X168444951Y-69677820D01*
X168569890Y-69849786D01*
X168720213Y-70000109D01*
X168892182Y-70125050D01*
X168900946Y-70129516D01*
X168951742Y-70177491D01*
X168968536Y-70245312D01*
X168945998Y-70311447D01*
X168900946Y-70350484D01*
X168892182Y-70354949D01*
X168720213Y-70479890D01*
X168569890Y-70630213D01*
X168444951Y-70802179D01*
X168348444Y-70991585D01*
X168348443Y-70991587D01*
X168348443Y-70991588D01*
X168315598Y-71092672D01*
X168282753Y-71193760D01*
X168264485Y-71309100D01*
X168249500Y-71403713D01*
X168249500Y-71616287D01*
X168282754Y-71826243D01*
X168340545Y-72004106D01*
X168348444Y-72028414D01*
X168444951Y-72217820D01*
X168569890Y-72389786D01*
X168720213Y-72540109D01*
X168892182Y-72665050D01*
X168900946Y-72669516D01*
X168951742Y-72717491D01*
X168968536Y-72785312D01*
X168945998Y-72851447D01*
X168900946Y-72890484D01*
X168892182Y-72894949D01*
X168720213Y-73019890D01*
X168720209Y-73019894D01*
X168612182Y-73127922D01*
X168550859Y-73161407D01*
X168481167Y-73156423D01*
X168425234Y-73114551D01*
X168400817Y-73049087D01*
X168400501Y-73040241D01*
X168400501Y-73000944D01*
X168374627Y-72904383D01*
X168359577Y-72848216D01*
X168326722Y-72791309D01*
X168280524Y-72711290D01*
X168280518Y-72711282D01*
X164326819Y-68757583D01*
X164293334Y-68696260D01*
X164290500Y-68669902D01*
X164290500Y-67504361D01*
X164310185Y-67437322D01*
X164326814Y-67416684D01*
X164389464Y-67354035D01*
X164488013Y-67206547D01*
X164555894Y-67042666D01*
X164568275Y-66980426D01*
X164590499Y-66868695D01*
X164590500Y-66868693D01*
X164590500Y-66691306D01*
X164590499Y-66691304D01*
X164555896Y-66517341D01*
X164555893Y-66517332D01*
X164488016Y-66353459D01*
X164488009Y-66353446D01*
X164389464Y-66205965D01*
X164389461Y-66205961D01*
X164264038Y-66080538D01*
X164264034Y-66080535D01*
X164116553Y-65981990D01*
X164116540Y-65981983D01*
X163952667Y-65914106D01*
X163952658Y-65914103D01*
X163778694Y-65879500D01*
X163778691Y-65879500D01*
X163601309Y-65879500D01*
X163601306Y-65879500D01*
X163427341Y-65914103D01*
X163427332Y-65914106D01*
X163263459Y-65981983D01*
X163263446Y-65981990D01*
X163115965Y-66080535D01*
X163115961Y-66080538D01*
X162990538Y-66205961D01*
X162990535Y-66205965D01*
X162891990Y-66353446D01*
X162891983Y-66353459D01*
X162824106Y-66517332D01*
X162824103Y-66517341D01*
X162789500Y-66691304D01*
X147990500Y-66691304D01*
X147990500Y-64005928D01*
X147965502Y-63880261D01*
X147965501Y-63880260D01*
X147965501Y-63880256D01*
X147916465Y-63761873D01*
X147903650Y-63742694D01*
X147845277Y-63655331D01*
X147845275Y-63655329D01*
X147845273Y-63655326D01*
X146954673Y-62764726D01*
X146910108Y-62734949D01*
X146848127Y-62693535D01*
X146843086Y-62691447D01*
X146729744Y-62644499D01*
X146729738Y-62644497D01*
X146604071Y-62619500D01*
X146604069Y-62619500D01*
X146131904Y-62619500D01*
X146102463Y-62610855D01*
X146072477Y-62604332D01*
X146067461Y-62600577D01*
X146064865Y-62599815D01*
X146044223Y-62583181D01*
X145989952Y-62528910D01*
X145956467Y-62467587D01*
X145961451Y-62397895D01*
X145989952Y-62353548D01*
X146089461Y-62254038D01*
X146089464Y-62254035D01*
X146188013Y-62106547D01*
X146255894Y-61942666D01*
X146275060Y-61846311D01*
X146307444Y-61784401D01*
X146368160Y-61749827D01*
X146372445Y-61748894D01*
X146412666Y-61740894D01*
X146576547Y-61673013D01*
X146724035Y-61574464D01*
X146849464Y-61449035D01*
X146948013Y-61301547D01*
X147015894Y-61137666D01*
X147050500Y-60963691D01*
X147050500Y-60786309D01*
X147050500Y-60786306D01*
X147050499Y-60786304D01*
X147015896Y-60612341D01*
X147015893Y-60612332D01*
X146948016Y-60448459D01*
X146948009Y-60448446D01*
X146849464Y-60300965D01*
X146849461Y-60300961D01*
X146724038Y-60175538D01*
X146724034Y-60175535D01*
X146576553Y-60076990D01*
X146576540Y-60076983D01*
X146412667Y-60009106D01*
X146412658Y-60009103D01*
X146238694Y-59974500D01*
X146238691Y-59974500D01*
X146150097Y-59974500D01*
X146083058Y-59954815D01*
X146062416Y-59938181D01*
X143592590Y-57468355D01*
X143592588Y-57468352D01*
X143473717Y-57349481D01*
X143473716Y-57349480D01*
X143386904Y-57299360D01*
X143386904Y-57299359D01*
X143386900Y-57299358D01*
X143336785Y-57270423D01*
X143184057Y-57229499D01*
X143025943Y-57229499D01*
X143018347Y-57229499D01*
X143018331Y-57229500D01*
X129876670Y-57229500D01*
X129876654Y-57229499D01*
X129869058Y-57229499D01*
X129710943Y-57229499D01*
X129634579Y-57249961D01*
X129558214Y-57270423D01*
X129558209Y-57270426D01*
X129421290Y-57349475D01*
X129421282Y-57349481D01*
X126577584Y-60193181D01*
X126516261Y-60226666D01*
X126489903Y-60229500D01*
X113514361Y-60229500D01*
X113447322Y-60209815D01*
X113426684Y-60193185D01*
X113364035Y-60130536D01*
X113364034Y-60130535D01*
X113364033Y-60130534D01*
X113216553Y-60031990D01*
X113216540Y-60031983D01*
X113052667Y-59964106D01*
X113052658Y-59964103D01*
X112878694Y-59929500D01*
X112878691Y-59929500D01*
X112701309Y-59929500D01*
X112701306Y-59929500D01*
X112527341Y-59964103D01*
X112527332Y-59964106D01*
X112363459Y-60031983D01*
X112363446Y-60031990D01*
X112215965Y-60130535D01*
X112215961Y-60130538D01*
X112090538Y-60255961D01*
X112090535Y-60255965D01*
X111991990Y-60403446D01*
X111991983Y-60403459D01*
X111924106Y-60567332D01*
X111924103Y-60567341D01*
X111889500Y-60741304D01*
X111889500Y-60918695D01*
X111921846Y-61081309D01*
X111915619Y-61150900D01*
X111872756Y-61206078D01*
X111806866Y-61229322D01*
X111800229Y-61229500D01*
X106710940Y-61229500D01*
X106670019Y-61240464D01*
X106670019Y-61240465D01*
X106632751Y-61250451D01*
X106558214Y-61270423D01*
X106558209Y-61270426D01*
X106421290Y-61349475D01*
X106421282Y-61349481D01*
X83279481Y-84491282D01*
X83279480Y-84491284D01*
X83237951Y-84563215D01*
X83200423Y-84628215D01*
X83159499Y-84780943D01*
X83159499Y-84939057D01*
X83159499Y-84939059D01*
X83159500Y-84949053D01*
X83159500Y-112703330D01*
X83159499Y-112703348D01*
X83159499Y-112869054D01*
X83159498Y-112869054D01*
X72290500Y-112869054D01*
X72290500Y-73180000D01*
X80610898Y-73180000D01*
X81674314Y-73180000D01*
X81669920Y-73184394D01*
X81617259Y-73275606D01*
X81590000Y-73377339D01*
X81590000Y-73482661D01*
X81617259Y-73584394D01*
X81669920Y-73675606D01*
X81674314Y-73680000D01*
X80610898Y-73680000D01*
X80626934Y-73781247D01*
X80699897Y-74005802D01*
X80807085Y-74216171D01*
X80945866Y-74407186D01*
X81112813Y-74574133D01*
X81303828Y-74712914D01*
X81514197Y-74820102D01*
X81738752Y-74893065D01*
X81738751Y-74893065D01*
X81971948Y-74930000D01*
X82840000Y-74930000D01*
X82840000Y-73830000D01*
X83340000Y-73830000D01*
X83340000Y-74930000D01*
X84208052Y-74930000D01*
X84441247Y-74893065D01*
X84665802Y-74820102D01*
X84876171Y-74712914D01*
X85067186Y-74574133D01*
X85234133Y-74407186D01*
X85372914Y-74216171D01*
X85480102Y-74005802D01*
X85553065Y-73781247D01*
X85569102Y-73680000D01*
X84505686Y-73680000D01*
X84510080Y-73675606D01*
X84562741Y-73584394D01*
X84590000Y-73482661D01*
X84590000Y-73377339D01*
X84562741Y-73275606D01*
X84510080Y-73184394D01*
X84505686Y-73180000D01*
X85569102Y-73180000D01*
X85553065Y-73078752D01*
X85480102Y-72854197D01*
X85372914Y-72643828D01*
X85234133Y-72452813D01*
X85067186Y-72285866D01*
X84876171Y-72147085D01*
X84665802Y-72039897D01*
X84441247Y-71966934D01*
X84441248Y-71966934D01*
X84208052Y-71930000D01*
X83340000Y-71930000D01*
X83340000Y-73030000D01*
X82840000Y-73030000D01*
X82840000Y-71930000D01*
X81971948Y-71930000D01*
X81738752Y-71966934D01*
X81514197Y-72039897D01*
X81303828Y-72147085D01*
X81112813Y-72285866D01*
X80945866Y-72452813D01*
X80807085Y-72643828D01*
X80699897Y-72854197D01*
X80626934Y-73078752D01*
X80610898Y-73180000D01*
X72290500Y-73180000D01*
X72290500Y-67711947D01*
X78290000Y-67711947D01*
X78290000Y-68580000D01*
X79390000Y-68580000D01*
X79390000Y-69080000D01*
X78290000Y-69080000D01*
X78290000Y-69948052D01*
X78326934Y-70181247D01*
X78399897Y-70405802D01*
X78507085Y-70616171D01*
X78645866Y-70807186D01*
X78812813Y-70974133D01*
X79003828Y-71112914D01*
X79214195Y-71220102D01*
X79438744Y-71293063D01*
X79438750Y-71293065D01*
X79540000Y-71309101D01*
X79540000Y-70245686D01*
X79544394Y-70250080D01*
X79635606Y-70302741D01*
X79737339Y-70330000D01*
X79842661Y-70330000D01*
X79944394Y-70302741D01*
X80035606Y-70250080D01*
X80040000Y-70245686D01*
X80040000Y-71309100D01*
X80141249Y-71293065D01*
X80141255Y-71293063D01*
X80365804Y-71220102D01*
X80576171Y-71112914D01*
X80767186Y-70974133D01*
X80934133Y-70807186D01*
X81072914Y-70616171D01*
X81180102Y-70405802D01*
X81253065Y-70181247D01*
X81290000Y-69948052D01*
X81290000Y-69080000D01*
X80190000Y-69080000D01*
X80190000Y-68580000D01*
X81290000Y-68580000D01*
X81290000Y-67711947D01*
X81289993Y-67711902D01*
X84389500Y-67711902D01*
X84389500Y-69948097D01*
X84426446Y-70181368D01*
X84499433Y-70405996D01*
X84576548Y-70557341D01*
X84606657Y-70616433D01*
X84745483Y-70807510D01*
X84912490Y-70974517D01*
X85103567Y-71113343D01*
X85202991Y-71164002D01*
X85314003Y-71220566D01*
X85314005Y-71220566D01*
X85314008Y-71220568D01*
X85434412Y-71259689D01*
X85538631Y-71293553D01*
X85771903Y-71330500D01*
X85771908Y-71330500D01*
X86008097Y-71330500D01*
X86241368Y-71293553D01*
X86270667Y-71284033D01*
X86465992Y-71220568D01*
X86676433Y-71113343D01*
X86867510Y-70974517D01*
X87034517Y-70807510D01*
X87173343Y-70616433D01*
X87280568Y-70405992D01*
X87353553Y-70181368D01*
X87360745Y-70135961D01*
X87390500Y-69948097D01*
X87390500Y-67711902D01*
X87353553Y-67478631D01*
X87298691Y-67309786D01*
X87280568Y-67254008D01*
X87280566Y-67254005D01*
X87280566Y-67254003D01*
X87208948Y-67113446D01*
X87173343Y-67043567D01*
X87034517Y-66852490D01*
X86867510Y-66685483D01*
X86676433Y-66546657D01*
X86656079Y-66536286D01*
X86465996Y-66439433D01*
X86241368Y-66366446D01*
X86008097Y-66329500D01*
X86008092Y-66329500D01*
X85771908Y-66329500D01*
X85771903Y-66329500D01*
X85538631Y-66366446D01*
X85314003Y-66439433D01*
X85103566Y-66546657D01*
X84994550Y-66625862D01*
X84912490Y-66685483D01*
X84912488Y-66685485D01*
X84912487Y-66685485D01*
X84745485Y-66852487D01*
X84745485Y-66852488D01*
X84745483Y-66852490D01*
X84708654Y-66903181D01*
X84606657Y-67043566D01*
X84499433Y-67254003D01*
X84426446Y-67478631D01*
X84389500Y-67711902D01*
X81289993Y-67711902D01*
X81253065Y-67478752D01*
X81180102Y-67254197D01*
X81072914Y-67043828D01*
X80934133Y-66852813D01*
X80767186Y-66685866D01*
X80576171Y-66547085D01*
X80365802Y-66439897D01*
X80141247Y-66366934D01*
X80040000Y-66350897D01*
X80040000Y-67414314D01*
X80035606Y-67409920D01*
X79944394Y-67357259D01*
X79842661Y-67330000D01*
X79737339Y-67330000D01*
X79635606Y-67357259D01*
X79544394Y-67409920D01*
X79540000Y-67414314D01*
X79540000Y-66350897D01*
X79438752Y-66366934D01*
X79214197Y-66439897D01*
X79003828Y-66547085D01*
X78812813Y-66685866D01*
X78645866Y-66852813D01*
X78507085Y-67043828D01*
X78399897Y-67254197D01*
X78326934Y-67478752D01*
X78290000Y-67711947D01*
X72290500Y-67711947D01*
X72290500Y-54708711D01*
X75939500Y-54708711D01*
X75939500Y-54951288D01*
X75971161Y-55191785D01*
X76033947Y-55426104D01*
X76126773Y-55650205D01*
X76126776Y-55650212D01*
X76248064Y-55860289D01*
X76248066Y-55860292D01*
X76248067Y-55860293D01*
X76395733Y-56052736D01*
X76395739Y-56052743D01*
X76567256Y-56224260D01*
X76567262Y-56224265D01*
X76759711Y-56371936D01*
X76969788Y-56493224D01*
X77193900Y-56586054D01*
X77428211Y-56648838D01*
X77608586Y-56672584D01*
X77668711Y-56680500D01*
X77668712Y-56680500D01*
X77911289Y-56680500D01*
X77959388Y-56674167D01*
X78151789Y-56648838D01*
X78386100Y-56586054D01*
X78610212Y-56493224D01*
X78820289Y-56371936D01*
X79012738Y-56224265D01*
X79184265Y-56052738D01*
X79331936Y-55860289D01*
X79453224Y-55650212D01*
X79546054Y-55426100D01*
X79608838Y-55191789D01*
X79640500Y-54951288D01*
X79640500Y-54708712D01*
X79640500Y-54708711D01*
X122939500Y-54708711D01*
X122939500Y-54951288D01*
X122971161Y-55191785D01*
X123033947Y-55426104D01*
X123126773Y-55650205D01*
X123126776Y-55650212D01*
X123248064Y-55860289D01*
X123248066Y-55860292D01*
X123248067Y-55860293D01*
X123395733Y-56052736D01*
X123395739Y-56052743D01*
X123567256Y-56224260D01*
X123567262Y-56224265D01*
X123759711Y-56371936D01*
X123969788Y-56493224D01*
X124193900Y-56586054D01*
X124428211Y-56648838D01*
X124608586Y-56672584D01*
X124668711Y-56680500D01*
X124668712Y-56680500D01*
X124911289Y-56680500D01*
X124959388Y-56674167D01*
X125151789Y-56648838D01*
X125386100Y-56586054D01*
X125610212Y-56493224D01*
X125820289Y-56371936D01*
X126012738Y-56224265D01*
X126184265Y-56052738D01*
X126331936Y-55860289D01*
X126453224Y-55650212D01*
X126546054Y-55426100D01*
X126608838Y-55191789D01*
X126640500Y-54951288D01*
X126640500Y-54708712D01*
X126608838Y-54468211D01*
X126546054Y-54233900D01*
X126453224Y-54009788D01*
X126331936Y-53799711D01*
X126184265Y-53607262D01*
X126184260Y-53607256D01*
X126012743Y-53435739D01*
X126012736Y-53435733D01*
X125820293Y-53288067D01*
X125820292Y-53288066D01*
X125820289Y-53288064D01*
X125610212Y-53166776D01*
X125610205Y-53166773D01*
X125386104Y-53073947D01*
X125151785Y-53011161D01*
X124911289Y-52979500D01*
X124911288Y-52979500D01*
X124668712Y-52979500D01*
X124668711Y-52979500D01*
X124428214Y-53011161D01*
X124193895Y-53073947D01*
X123969794Y-53166773D01*
X123969785Y-53166777D01*
X123759706Y-53288067D01*
X123567263Y-53435733D01*
X123567256Y-53435739D01*
X123395739Y-53607256D01*
X123395733Y-53607263D01*
X123248067Y-53799706D01*
X123126777Y-54009785D01*
X123126773Y-54009794D01*
X123033947Y-54233895D01*
X122971161Y-54468214D01*
X122939500Y-54708711D01*
X79640500Y-54708711D01*
X79608838Y-54468211D01*
X79546054Y-54233900D01*
X79453224Y-54009788D01*
X79331936Y-53799711D01*
X79184265Y-53607262D01*
X79184260Y-53607256D01*
X79012743Y-53435739D01*
X79012736Y-53435733D01*
X78820293Y-53288067D01*
X78820292Y-53288066D01*
X78820289Y-53288064D01*
X78610212Y-53166776D01*
X78610205Y-53166773D01*
X78386104Y-53073947D01*
X78151785Y-53011161D01*
X77911289Y-52979500D01*
X77911288Y-52979500D01*
X77668712Y-52979500D01*
X77668711Y-52979500D01*
X77428214Y-53011161D01*
X77193895Y-53073947D01*
X76969794Y-53166773D01*
X76969785Y-53166777D01*
X76759706Y-53288067D01*
X76567263Y-53435733D01*
X76567256Y-53435739D01*
X76395739Y-53607256D01*
X76395733Y-53607263D01*
X76248067Y-53799706D01*
X76126777Y-54009785D01*
X76126773Y-54009794D01*
X76033947Y-54233895D01*
X75971161Y-54468214D01*
X75939500Y-54708711D01*
X72290500Y-54708711D01*
X72290500Y-49454500D01*
X72310185Y-49387461D01*
X72362989Y-49341706D01*
X72414500Y-49330500D01*
X132230083Y-49330500D01*
X132297122Y-49350185D01*
G37*
%TD.AperFunction*%
M02*
